<?xml version="1.0" encoding="UTF-8" standalone="no"?>
<!-- Created with Inkscape (http://www.inkscape.org/) -->

<svg
   width="200.16348mm"
   height="31.213848mm"
   viewBox="0 0 200.16348 31.213848"
   version="1.1"
   id="svg1"
   inkscape:version="1.4 (e7c3feb1, 2024-10-09)"
   sodipodi:docname="disegno.svg"
   xmlns:inkscape="http://www.inkscape.org/namespaces/inkscape"
   xmlns:sodipodi="http://sodipodi.sourceforge.net/DTD/sodipodi-0.dtd"
   xmlns="http://www.w3.org/2000/svg"
   xmlns:svg="http://www.w3.org/2000/svg">
  <sodipodi:namedview
     id="namedview1"
     pagecolor="#ffffff"
     bordercolor="#000000"
     borderopacity="0.25"
     inkscape:showpageshadow="2"
     inkscape:pageopacity="0.0"
     inkscape:pagecheckerboard="0"
     inkscape:deskcolor="#d1d1d1"
     inkscape:document-units="mm"
     inkscape:zoom="1.0482005"
     inkscape:cx="606.75415"
     inkscape:cy="115.43593"
     inkscape:window-width="1512"
     inkscape:window-height="895"
     inkscape:window-x="0"
     inkscape:window-y="38"
     inkscape:window-maximized="0"
     inkscape:current-layer="g3" />
  <defs
     id="defs1" />
  <g
     inkscape:label="Livello 1 copia copia"
     inkscape:groupmode="layer"
     id="g3"
     transform="translate(-7.5725017,-215.27706)">
    <path
       style="font-size:19.7556px;line-height:1;font-family:Evidence;-inkscape-font-specification:Evidence;stroke-width:0.661458;stroke-linecap:round;stroke-linejoin:round;paint-order:fill markers stroke"
       d="m 11.839711,238.37136 0.217312,0.41486 h 1.224847 q 1.323625,0 2.232383,-0.23706 0.908757,-0.23707 1.323625,-0.63218 0.414868,-0.41487 0.553157,-0.77047 0.158045,-0.37536 0.158045,-0.77047 v -13.3943 h -1.817516 v 12.82139 q 0,0.75071 -0.335845,1.28411 -0.335845,0.5334 -0.809979,0.77047 -0.454379,0.23707 -0.928514,0.37536 -0.474134,0.11853 -0.809979,0.11853 l -0.335845,0.0198 z m 1.778004,0 H 12.61018 q -0.13829,0 -0.355601,0 -0.217312,-0.0198 -0.770469,-0.13829 -0.553156,-0.13829 -0.98778,-0.37536 -0.414867,-0.23707 -0.7704679,-0.77047 -0.3358452,-0.5334 -0.3358452,-1.28411 V 222.98174 H 7.5725017 v 13.3943 q 0,0.39511 0.1382892,0.77047 0.1580448,0.3556 0.5729124,0.77047 0.4148676,0.39511 1.3236252,0.63218 0.9087575,0.23706 2.2323825,0.23706 h 1.560693 z M 28.2566,222.98174 h 1.185336 v 15.80448 H 28.2566 Z m -10.589001,-3.49674 0.01975,-4.20794 11.754582,22.48187 v 4.46477 z m 1.797759,3.49674 h 1.185336 v 15.80448 h -1.185336 z m 15.78471,7.48738 h 1.047047 q 0.138289,0 0.355601,0 0.217311,-0.0198 0.770468,-0.13829 0.553157,-0.13829 0.968024,-0.37536 0.434624,-0.23707 0.770469,-0.77047 0.355601,-0.5334 0.355601,-1.28411 v -1.20509 h 1.817515 v 1.778 q 0,0.39511 -0.158045,0.77047 -0.138289,0.3556 -0.553157,0.77047 -0.414867,0.39511 -1.323625,0.63218 -0.908758,0.23706 -2.232383,0.23706 H 35.46738 Z m -2.370672,-7.07251 -0.05927,-0.41487 h 4.247454 q 1.323625,0 2.232383,0.23707 0.908758,0.23707 1.323625,0.65194 0.414868,0.39511 0.553157,0.77046 0.158045,0.35561 0.158045,0.75072 v 1.778 h -1.817515 v -1.20509 q 0,-0.55316 -0.197556,-0.98778 -0.177801,-0.43462 -0.434624,-0.69145 -0.256822,-0.25682 -0.651934,-0.43462 -0.375357,-0.19756 -0.651935,-0.27658 -0.276579,-0.0988 -0.651935,-0.13829 -0.375356,-0.0395 -0.454379,-0.0395 -0.05927,0 -0.1778,0 z m 2.370672,7.07251 -0.05927,-4.52404 6.143992,11.81385 v 4.46477 z m -3.891853,-7.48738 h 1.817515 v 15.80448 h -1.817515 z m 13.078192,0 h 8.791242 l 0.09878,0.98778 h -8.791242 z m 0.118534,14.8167 h 8.791242 l -0.118534,0.98778 h -8.791242 z m 0.138289,-7.32932 h 5.294501 v 0.41486 H 44.69323 Z m -1.442159,-7.48738 h 1.817516 v 15.80448 h -1.817516 z m 20.684099,11.9719 h -5.946436 v 0.41487 h 5.946436 z m 0,3.83258 h 1.185336 V 222.98174 H 63.93517 Z m -10.589002,3.49675 0.01976,4.20794 11.754582,-22.48187 v -4.46477 z m 14.994486,-4.48453 h 8.791242 l -0.118533,0.98778 h -8.791242 z m -1.303869,-14.8167 H 68.8543 v 15.80448 h -1.817515 z m 21.33602,0 h 8.791242 l 0.09878,0.98778 h -8.791242 z m 0.118534,14.8167 h 8.791242 l -0.118534,0.98778 h -8.791242 z m 0.138289,-7.32932 h 5.294501 v 0.41486 h -5.294501 z m -1.442159,-7.48738 h 1.817515 v 15.80448 h -1.817515 z m 17.167601,15.38962 0.0593,0.41486 h 0.0198 0.0198 0.0198 0.0198 0.0198 0.0198 0.0395 0.0198 0.0198 0.0198 0.0395 0.0198 0.0198 0.0395 0.0198 0.0198 0.0198 0.0395 0.0197 0.0198 0.0198 0.0198 0.0198 0.0198 0.0198 0.0198 0.0198 0.0198 0.0198 0.0198 0.0198 0.0198 0.0198 0.0198 0.0198 0.0198 0.0198 0.0198 0.0198 v 0 h 0.0198 v 0 h 0.0198 v 0 h 0.0197 v 0 0 h 0.0198 v 0 0 0 0 0 0 0 0 0 h -0.0198 v 0 0 h -0.0197 v 0 0 h -0.0198 v 0 h -0.0198 v 0 h -0.0198 v 0 h -0.0198 v 0 h -0.0198 v 0 h -0.0198 -0.0198 v 0 h -0.0198 -0.0198 -0.0198 -0.0198 -0.0198 -0.0198 -0.0198 -0.0198 -0.0198 -0.0198 -0.0198 -0.0198 -0.0198 -0.0198 -0.0198 -0.0197 -0.0198 -0.0198 -0.0198 -0.0198 -0.0198 -0.0198 -0.0198 -0.0198 -0.0198 -0.0198 -0.0198 -0.0198 -0.0198 -0.0198 -0.0198 -0.0198 -0.0198 -0.0198 -0.0198 -0.0198 -0.0198 -0.0198 -0.0198 -0.0198 -0.0198 -0.0198 -0.0198 -0.0198 -0.0198 -0.0197 -0.0198 -0.0198 -0.0198 -0.0198 -0.0198 -0.0198 -0.0198 -0.0198 -0.0198 -0.0198 -0.0198 -0.0198 -0.0198 -0.0198 -0.0198 -0.0198 -0.0198 -0.0198 -0.0198 -0.0198 -0.0198 -0.0198 -0.0198 -0.0198 -0.0198 -0.0198 -0.0197 -0.0198 -0.0198 -0.0198 -0.0197 -0.0198 -0.0198 -0.0198 -0.0198 -0.0198 -0.19756 q -1.32362,0 -2.23238,-0.23706 -0.90876,-0.23707 -1.323627,-0.63218 -0.414867,-0.41487 -0.572912,-0.77047 -0.138289,-0.37536 -0.138289,-0.77047 v -1.778 h 1.817518 v 1.20509 q 0,0.75071 0.33584,1.28411 0.33585,0.5334 0.80998,0.77047 0.47414,0.23707 0.92851,0.37536 0.47414,0.11853 0.80998,0.11853 l 0.33585,0.0198 z m -1.02729,0 h 0.69144 q 0.13829,0 0.3556,0 0.21731,-0.0198 0.77047,-0.13829 0.55316,-0.13829 0.96803,-0.37536 0.43462,-0.23707 0.77046,-0.77047 0.3556,-0.5334 0.3556,-1.28411 v -1.20509 h 1.81752 v 1.778 q 0,0.39511 -0.15805,0.77047 -0.13828,0.3556 -0.55315,0.77047 -0.41487,0.39511 -1.32363,0.63218 -0.90875,0.23706 -2.23238,0.23706 h -1.2446 z m 0.45437,-7.48738 -0.0593,-0.41486 h -0.0198 -0.0198 -0.0198 -0.0197 -0.0198 -0.0198 -0.0395 -0.0198 -0.0198 -0.0198 -0.0395 -0.0198 -0.0198 -0.0395 -0.0198 -0.0198 -0.0198 -0.0395 -0.0197 -0.0198 -0.0198 -0.0198 -0.0197 -0.0198 -0.0198 -0.0198 -0.0198 -0.0198 -0.0198 -0.0198 -0.0198 -0.0198 -0.0198 -0.0198 -0.0198 -0.0198 -0.0198 -0.0198 -0.0198 v 0 h -0.0198 v 0 h -0.0198 v 0 h -0.0198 v 0 0 h -0.0198 v 0 0 0 0 0 0 0 0 0 h 0.0198 v 0 0 h 0.0198 v 0 0 h 0.0198 v 0 h 0.0198 v 0 h 0.0198 v 0 h 0.0198 v 0 h 0.0198 v 0 h 0.0198 0.0198 v 0 h 0.0198 0.0198 0.0198 0.0198 0.0198 0.0198 0.0198 0.0198 0.0198 0.0198 0.0198 0.0197 0.0198 0.0198 0.0198 0.0197 0.0198 0.0198 0.0198 0.0198 0.0198 0.0198 0.0198 0.0198 0.0198 0.0198 0.0198 0.0198 0.0198 0.0198 0.0198 0.0198 0.0198 0.0198 0.0197 0.0198 0.0198 0.0198 0.0197 0.0198 0.0198 0.0198 0.0198 0.0198 0.0198 0.0198 0.0198 0.0198 0.0198 0.0198 0.0198 0.0198 0.0198 0.0198 0.0198 0.0198 0.0198 0.0198 0.0198 0.0198 0.0198 0.0198 0.0198 0.0198 0.0198 0.0197 0.0198 0.0198 0.0198 0.0198 0.0198 0.0198 0.0198 0.0198 0.0198 0.0198 0.0198 0.0198 0.0198 0.0198 0.0198 0.0198 0.19756 q 1.32363,0 2.23238,0.23706 0.90876,0.23707 1.32363,0.65194 0.41487,0.39511 0.55315,0.77047 0.15805,0.3556 0.15805,0.75071 v 1.778 h -1.81752 v -1.20509 q 0,-0.75071 -0.33584,-1.28411 -0.33585,-0.5334 -0.80998,-0.77047 -0.45438,-0.23707 -0.92851,-0.3556 -0.47414,-0.13829 -0.80998,-0.15805 h -0.33585 z m 1.0273,-0.41486 -0.21732,0.41486 h -1.2446 q -1.32362,0 -2.23238,-0.23706 -0.90876,-0.23707 -1.323627,-0.63218 -0.414867,-0.41487 -0.572912,-0.77047 -0.138289,-0.37536 -0.138289,-0.77047 v -1.778 h 1.817518 v 1.20509 q 0,0.75071 0.33584,1.28411 0.33585,0.5334 0.80998,0.77047 0.47414,0.23707 0.92851,0.37536 0.47414,0.11853 0.80998,0.11853 l 0.33585,0.0198 z m -0.45438,-7.07251 H 104.118 q -0.13829,0 -0.3556,0.0198 -0.21731,0 -0.77047,0.13829 -0.55316,0.11853 -0.98778,0.3556 -0.41487,0.23706 -0.77047,0.77047 -0.33584,0.5334 -0.33584,1.28411 v 1.20509 h -1.817518 v -1.778 q 0,-0.39511 0.138289,-0.75072 0.158045,-0.37535 0.572912,-0.77046 0.414867,-0.41487 1.323627,-0.65194 0.90876,-0.23707 2.23238,-0.23707 h 0.19756 0.23706 0.27658 0.37536 -0.0198 z m 6.61811,-0.41487 h 9.97658 l 0.0988,0.98778 h -10.15438 z m 3.95112,0 h 1.81752 v 15.80448 h -1.81752 z m 16.73298,11.9719 h -5.94644 v 0.41487 h 5.94644 z m 0,3.83258 h 1.18533 v -15.80448 h -1.18533 z m -10.589,3.49675 0.0198,4.20794 11.75458,-22.48187 v -4.46477 z m 13.69062,-19.30123 h 9.97657 l 0.0988,0.98778 h -10.15438 z m 3.95112,0 h 1.81751 v 15.80448 h -1.81751 z m 9.12707,0 h 8.79124 l 0.0988,0.98778 h -8.79124 z m 0.11854,14.8167 h 8.79124 l -0.11854,0.98778 h -8.79124 z m 0.13828,-7.32932 h 5.29451 v 0.41486 h -5.29451 z m -1.44215,-7.48738 h 1.81751 v 15.80448 h -1.81751 z m 20.15068,0 h 1.81751 v 16.65398 l -1.81751,2.03482 z m 1.44216,7.48738 h 5.2945 v 0.41486 h -5.2945 z m 0.079,-7.07251 -0.0593,-0.41487 h 4.24745 q 1.32363,0 2.23239,0.23707 0.90876,0.23707 1.32362,0.65194 0.41487,0.39511 0.55316,0.77046 0.15804,0.35561 0.15804,0.75072 v 1.778 h -1.81751 v -1.20509 q 0,-0.55316 -0.19756,-0.98778 -0.1778,-0.43462 -0.43462,-0.69145 -0.25682,-0.25682 -0.65193,-0.43462 -0.37536,-0.19756 -0.65194,-0.27658 -0.27658,-0.0988 -0.65193,-0.13829 -0.37536,-0.0395 -0.45438,-0.0395 -0.0593,0 -0.1778,0 z m 10.37167,-0.41487 h 1.81751 v 16.65398 l -1.81751,2.03482 z m 5.03766,14.8167 h 8.79125 l -0.11854,0.98778 h -8.79124 z m -1.30387,-14.8167 h 1.81752 v 15.80448 h -1.81752 z m 17.78003,8.53442 -0.0395,2.76579 -5.84765,-11.30021 h 1.50142 z m 7.52688,-11.99165 -8.69246,16.93055 q 0,-0.75071 0,-2.25213 0.0197,-1.50143 0.0197,-2.25214 l 8.65295,-16.63422 z m -3.73381,3.45723 h 1.81752 v 15.80448 h -1.81752 z m -9.68024,0 1.81751,0.69145 v 15.11303 h -1.81751 z"
       id="text3"
       aria-label="Unreal Estate Film" />
  </g>
</svg>
