<?xml version="1.0" encoding="UTF-8" standalone="no"?>
<!-- Created with Inkscape (http://www.inkscape.org/) -->

<svg
   width="72.374977mm"
   height="60.43mm"
   viewBox="0 0 72.374977 60.43"
   version="1.1"
   id="svg1"
   sodipodi:docname="disegno.svg"
   inkscape:version="1.4 (e7c3feb1, 2024-10-09)"
   inkscape:export-filename="disegno.png"
   inkscape:export-xdpi="96"
   inkscape:export-ydpi="96"
   xmlns:inkscape="http://www.inkscape.org/namespaces/inkscape"
   xmlns:sodipodi="http://sodipodi.sourceforge.net/DTD/sodipodi-0.dtd"
   xmlns:xlink="http://www.w3.org/1999/xlink"
   xmlns="http://www.w3.org/2000/svg"
   xmlns:svg="http://www.w3.org/2000/svg">
  <sodipodi:namedview
     id="namedview1"
     pagecolor="#ffffff"
     bordercolor="#000000"
     borderopacity="0.25"
     inkscape:showpageshadow="2"
     inkscape:pageopacity="0.0"
     inkscape:pagecheckerboard="0"
     inkscape:deskcolor="#d1d1d1"
     inkscape:document-units="mm"
     inkscape:zoom="4.4161213"
     inkscape:cx="134.50717"
     inkscape:cy="120.35448"
     inkscape:window-width="1392"
     inkscape:window-height="852"
     inkscape:window-x="0"
     inkscape:window-y="38"
     inkscape:window-maximized="0"
     inkscape:current-layer="layer4" />
  <defs
     id="defs1">
    <pattern
       xlink:href="#pattern6-7"
       preserveAspectRatio="xMidYMid"
       id="pattern10"
       patternTransform="translate(190,350)" />
    <pattern
       patternUnits="userSpaceOnUse"
       width="29"
       height="20"
       patternTransform="translate(190,350)"
       preserveAspectRatio="xMidYMid"
       style="fill:#000000"
       id="pattern6-7">
      <path
         style="fill:none;stroke:#000000;stroke-width:10;stroke-linecap:butt;stroke-dasharray:none;paint-order:stroke markers fill;stop-color:#000000"
         d="M 0,5 C 19,5 10,15 29,15"
         id="path4-2" />
    </pattern>
    <linearGradient
       id="linearGradient1">
      <stop
         style="stop-color:#ffe680;stop-opacity:0;"
         offset="0"
         id="stop2" />
      <stop
         style="stop-color:#ffe680;stop-opacity:1;"
         offset="1"
         id="stop1" />
    </linearGradient>
    <linearGradient
       id="swatch137">
      <stop
         style="stop-color:#edf4fa;stop-opacity:0.8319838;"
         offset="0"
         id="stop138" />
    </linearGradient>
    <clipPath
       clipPathUnits="userSpaceOnUse"
       id="clipPath25">
      <path
         d="M 0,500 H 500 V 0 H 0 Z"
         transform="translate(-282.85641,-387.62501)"
         id="path25" />
    </clipPath>
    <clipPath
       clipPathUnits="userSpaceOnUse"
       id="clipPath27">
      <path
         d="M 0,500 H 500 V 0 H 0 Z"
         transform="translate(-321.10641,-392.90231)"
         id="path27" />
    </clipPath>
    <clipPath
       clipPathUnits="userSpaceOnUse"
       id="clipPath29">
      <path
         d="M 0,500 H 500 V 0 H 0 Z"
         transform="translate(-288.3838,-387.62551)"
         id="path29" />
    </clipPath>
    <clipPath
       clipPathUnits="userSpaceOnUse"
       id="clipPath31">
      <path
         d="M 0,500 H 500 V 0 H 0 Z"
         transform="translate(-328.08591,-387.62601)"
         id="path31" />
    </clipPath>
    <clipPath
       clipPathUnits="userSpaceOnUse"
       id="clipPath33">
      <path
         d="M 0,500 H 500 V 0 H 0 Z"
         transform="translate(-307.12111,-391.40141)"
         id="path33" />
    </clipPath>
    <clipPath
       clipPathUnits="userSpaceOnUse"
       id="clipPath35">
      <path
         d="M 0,500 H 500 V 0 H 0 Z"
         transform="translate(-420.88181,-378.45411)"
         id="path35" />
    </clipPath>
    <clipPath
       clipPathUnits="userSpaceOnUse"
       id="clipPath37">
      <path
         d="M 0,500 H 500 V 0 H 0 Z"
         transform="translate(-396.61621,-387.62501)"
         id="path37" />
    </clipPath>
    <clipPath
       clipPathUnits="userSpaceOnUse"
       id="clipPath39">
      <path
         d="M 0,500 H 500 V 0 H 0 Z"
         transform="translate(-434.86721,-392.90231)"
         id="path39" />
    </clipPath>
    <clipPath
       clipPathUnits="userSpaceOnUse"
       id="clipPath41">
      <path
         d="M 0,500 H 500 V 0 H 0 Z"
         transform="translate(-402.14551,-387.62551)"
         id="path41" />
    </clipPath>
    <clipPath
       clipPathUnits="userSpaceOnUse"
       id="clipPath43">
      <path
         d="M 0,500 H 500 V 0 H 0 Z"
         transform="translate(-441.84671,-387.62601)"
         id="path43" />
    </clipPath>
    <clipPath
       clipPathUnits="userSpaceOnUse"
       id="clipPath45">
      <path
         d="M 0,500 H 500 V 0 H 0 Z"
         transform="translate(-420.88181,-391.40141)"
         id="path45" />
    </clipPath>
    <clipPath
       clipPathUnits="userSpaceOnUse"
       id="clipPath47">
      <path
         d="M 0,500 H 500 V 0 H 0 Z"
         transform="translate(-302.46391,-359.68801)"
         id="path47" />
    </clipPath>
    <clipPath
       clipPathUnits="userSpaceOnUse"
       id="clipPath49">
      <path
         d="M 0,500 H 500 V 0 H 0 Z"
         transform="translate(-327.39451,-363.12791)"
         id="path49" />
    </clipPath>
    <clipPath
       clipPathUnits="userSpaceOnUse"
       id="clipPath51">
      <path
         d="M 0,500 H 500 V 0 H 0 Z"
         transform="translate(-306.06741,-359.68801)"
         id="path51" />
    </clipPath>
    <clipPath
       clipPathUnits="userSpaceOnUse"
       id="clipPath53">
      <path
         d="M 0,500 H 500 V 0 H 0 Z"
         transform="translate(-331.94431,-359.68851)"
         id="path53" />
    </clipPath>
    <clipPath
       clipPathUnits="userSpaceOnUse"
       id="clipPath55">
      <path
         d="M 0,500 H 500 V 0 H 0 Z"
         transform="translate(-318.27931,-362.14891)"
         id="path55" />
    </clipPath>
    <clipPath
       clipPathUnits="userSpaceOnUse"
       id="clipPath57">
      <path
         d="M 0,500 H 500 V 0 H 0 Z"
         transform="translate(-400.60741,-356.24761)"
         id="path57" />
    </clipPath>
    <clipPath
       clipPathUnits="userSpaceOnUse"
       id="clipPath59">
      <path
         d="M 0,500 H 500 V 0 H 0 Z"
         transform="translate(-425.53611,-359.68801)"
         id="path59" />
    </clipPath>
    <clipPath
       clipPathUnits="userSpaceOnUse"
       id="clipPath61">
      <path
         d="M 0,500 H 500 V 0 H 0 Z"
         transform="translate(-396.05761,-359.68801)"
         id="path61" />
    </clipPath>
    <clipPath
       clipPathUnits="userSpaceOnUse"
       id="clipPath63">
      <path
         d="M 0,500 H 500 V 0 H 0 Z"
         transform="translate(-421.93361,-359.68851)"
         id="path63" />
    </clipPath>
    <clipPath
       clipPathUnits="userSpaceOnUse"
       id="clipPath65">
      <path
         d="M 0,500 H 500 V 0 H 0 Z"
         transform="translate(-409.72171,-357.22751)"
         id="path65" />
    </clipPath>
    <clipPath
       clipPathUnits="userSpaceOnUse"
       id="clipPath67">
      <path
         d="M 0,500 H 500 V 0 H 0 Z"
         transform="translate(-372.25291,-363.87301)"
         id="path67" />
    </clipPath>
    <clipPath
       clipPathUnits="userSpaceOnUse"
       id="clipPath69">
      <path
         d="M 0,500 H 500 V 0 H 0 Z"
         transform="translate(-366.67771,-364.16061)"
         id="path69" />
    </clipPath>
    <clipPath
       clipPathUnits="userSpaceOnUse"
       id="clipPath4">
      <path
         d="M 0,500 H 750 V 0 H 0 Z"
         transform="translate(-157.25241,-213.21291)"
         id="path4" />
    </clipPath>
    <clipPath
       clipPathUnits="userSpaceOnUse"
       id="clipPath6">
      <path
         d="M 0,500 H 750 V 0 H 0 Z"
         transform="translate(-210.6211,-189.97751)"
         id="path6" />
    </clipPath>
    <clipPath
       clipPathUnits="userSpaceOnUse"
       id="clipPath8">
      <path
         d="M 0,500 H 750 V 0 H 0 Z"
         transform="translate(-123.5313,-178.793)"
         id="path8" />
    </clipPath>
    <clipPath
       clipPathUnits="userSpaceOnUse"
       id="clipPath10">
      <path
         d="M 0,500 H 750 V 0 H 0 Z"
         transform="translate(-156.7002,-220.86621)"
         id="path10" />
    </clipPath>
    <clipPath
       clipPathUnits="userSpaceOnUse"
       id="clipPath12">
      <path
         d="M 0,500 H 750 V 0 H 0 Z"
         transform="translate(-213.66601,-190.2354)"
         id="path12" />
    </clipPath>
    <clipPath
       clipPathUnits="userSpaceOnUse"
       id="clipPath14">
      <path
         d="M 0,500 H 750 V 0 H 0 Z"
         transform="translate(-167.8213,-233.81741)"
         id="path14" />
    </clipPath>
    <clipPath
       clipPathUnits="userSpaceOnUse"
       id="clipPath16">
      <path
         d="M 0,500 H 750 V 0 H 0 Z"
         transform="translate(-280.05961,-223.91021)"
         id="path16" />
    </clipPath>
    <clipPath
       clipPathUnits="userSpaceOnUse"
       id="clipPath18">
      <path
         d="M 0,500 H 750 V 0 H 0 Z"
         transform="translate(-255.55521,-212.1279)"
         id="path18" />
    </clipPath>
    <clipPath
       clipPathUnits="userSpaceOnUse"
       id="clipPath20">
      <path
         d="M 0,500 H 750 V 0 H 0 Z"
         transform="translate(-248.21481,-211.00491)"
         id="path20" />
    </clipPath>
    <clipPath
       clipPathUnits="userSpaceOnUse"
       id="clipPath22">
      <path
         d="M 0,500 H 750 V 0 H 0 Z"
         transform="translate(-296.35011,-219.40331)"
         id="path22" />
    </clipPath>
    <clipPath
       clipPathUnits="userSpaceOnUse"
       id="clipPath24">
      <path
         d="M 0,500 H 750 V 0 H 0 Z"
         transform="translate(-588.06641,-175.1777)"
         id="path24-3" />
    </clipPath>
    <clipPath
       clipPathUnits="userSpaceOnUse"
       id="clipPath26">
      <path
         d="M 0,500 H 750 V 0 H 0 Z"
         transform="translate(-650.25682,-159.8535)"
         id="path26-9" />
    </clipPath>
    <clipPath
       clipPathUnits="userSpaceOnUse"
       id="clipPath28">
      <path
         d="M 0,500 H 750 V 0 H 0 Z"
         transform="translate(-493.67291,-276.61721)"
         id="path28-9" />
    </clipPath>
    <clipPath
       clipPathUnits="userSpaceOnUse"
       id="clipPath30">
      <path
         d="M 0,500 H 750 V 0 H 0 Z"
         transform="translate(-460.68751,-311.51561)"
         id="path30-9" />
    </clipPath>
    <clipPath
       clipPathUnits="userSpaceOnUse"
       id="clipPath32">
      <path
         d="M 0,500 H 750 V 0 H 0 Z"
         transform="translate(-282.55221,-270.2061)"
         id="path32-1" />
    </clipPath>
    <clipPath
       clipPathUnits="userSpaceOnUse"
       id="clipPath34">
      <path
         d="M 0,500 H 750 V 0 H 0 Z"
         transform="translate(-244.69191,-271.54881)"
         id="path34-7" />
    </clipPath>
    <clipPath
       clipPathUnits="userSpaceOnUse"
       id="clipPath36">
      <path
         d="M 0,500 H 750 V 0 H 0 Z"
         transform="translate(-240.44241,-278.34671)"
         id="path36-2" />
    </clipPath>
    <clipPath
       clipPathUnits="userSpaceOnUse"
       id="clipPath38">
      <path
         d="M 0,500 H 750 V 0 H 0 Z"
         transform="translate(-253.7524,-241.7559)"
         id="path38-3" />
    </clipPath>
    <clipPath
       clipPathUnits="userSpaceOnUse"
       id="clipPath40">
      <path
         d="M 0,500 H 750 V 0 H 0 Z"
         transform="translate(-223.6738,-240.5508)"
         id="path40-6" />
    </clipPath>
    <clipPath
       clipPathUnits="userSpaceOnUse"
       id="clipPath42">
      <path
         d="M 0,500 H 750 V 0 H 0 Z"
         transform="translate(-218.19141,-220.27731)"
         id="path42-5" />
    </clipPath>
    <clipPath
       clipPathUnits="userSpaceOnUse"
       id="clipPath44">
      <path
         d="M 0,500 H 750 V 0 H 0 Z"
         transform="translate(-330.23681,-309.27151)"
         id="path44-5" />
    </clipPath>
    <clipPath
       clipPathUnits="userSpaceOnUse"
       id="clipPath46">
      <path
         d="M 0,500 H 750 V 0 H 0 Z"
         transform="translate(-327.44971,-300.66161)"
         id="path46-8" />
    </clipPath>
    <clipPath
       clipPathUnits="userSpaceOnUse"
       id="clipPath48">
      <path
         d="M 0,500 H 750 V 0 H 0 Z"
         transform="translate(-325.90431,-319.62891)"
         id="path48-1" />
    </clipPath>
    <clipPath
       clipPathUnits="userSpaceOnUse"
       id="clipPath50">
      <path
         d="M 0,500 H 750 V 0 H 0 Z"
         transform="translate(-316.40231,-311.66311)"
         id="path50-4" />
    </clipPath>
    <clipPath
       clipPathUnits="userSpaceOnUse"
       id="clipPath52">
      <path
         d="M 0,500 H 750 V 0 H 0 Z"
         transform="translate(-326.50201,-324.30181)"
         id="path52-7" />
    </clipPath>
    <clipPath
       clipPathUnits="userSpaceOnUse"
       id="clipPath54">
      <path
         d="M 0,500 H 750 V 0 H 0 Z"
         transform="translate(-337.15381,-318.88381)"
         id="path54-1" />
    </clipPath>
    <clipPath
       clipPathUnits="userSpaceOnUse"
       id="clipPath56">
      <path
         d="M 0,500 H 750 V 0 H 0 Z"
         transform="translate(-351.73341,-299.0703)"
         id="path56-3" />
    </clipPath>
    <clipPath
       clipPathUnits="userSpaceOnUse"
       id="clipPath58">
      <path
         d="M 0,500 H 750 V 0 H 0 Z"
         transform="translate(-349.14841,-359.86231)"
         id="path58-8" />
    </clipPath>
    <clipPath
       clipPathUnits="userSpaceOnUse"
       id="clipPath60">
      <path
         d="M 0,500 H 750 V 0 H 0 Z"
         transform="translate(-333.72271,-359.31051)"
         id="path60-4" />
    </clipPath>
    <clipPath
       clipPathUnits="userSpaceOnUse"
       id="clipPath62">
      <path
         d="M 0,500 H 750 V 0 H 0 Z"
         transform="translate(-378.26171,-385.53521)"
         id="path62-8" />
    </clipPath>
    <clipPath
       clipPathUnits="userSpaceOnUse"
       id="clipPath64">
      <path
         d="M 0,500 H 750 V 0 H 0 Z"
         transform="translate(-480.64841,-270.8682)"
         id="path64-0" />
    </clipPath>
    <clipPath
       clipPathUnits="userSpaceOnUse"
       id="clipPath66">
      <path
         d="M 0,500 H 750 V 0 H 0 Z"
         transform="translate(-487.48241,-266.63721)"
         id="path66-4" />
    </clipPath>
    <clipPath
       clipPathUnits="userSpaceOnUse"
       id="clipPath68">
      <path
         d="M 0,500 H 750 V 0 H 0 Z"
         transform="translate(-559.91111,-256.24271)"
         id="path68-6" />
    </clipPath>
    <clipPath
       clipPathUnits="userSpaceOnUse"
       id="clipPath70">
      <path
         d="M 0,500 H 750 V 0 H 0 Z"
         transform="translate(-542.20411,-244.82811)"
         id="path70" />
    </clipPath>
    <clipPath
       clipPathUnits="userSpaceOnUse"
       id="clipPath72">
      <path
         d="M 0,500 H 750 V 0 H 0 Z"
         transform="translate(-542.29591,-253.4004)"
         id="path72" />
    </clipPath>
    <clipPath
       clipPathUnits="userSpaceOnUse"
       id="clipPath74">
      <path
         d="M 0,500 H 750 V 0 H 0 Z"
         transform="translate(-515.50102,-269.5713)"
         id="path74" />
    </clipPath>
    <clipPath
       clipPathUnits="userSpaceOnUse"
       id="clipPath76">
      <path
         d="M 0,500 H 750 V 0 H 0 Z"
         transform="translate(-540.10642,-242.67581)"
         id="path76" />
    </clipPath>
    <clipPath
       clipPathUnits="userSpaceOnUse"
       id="clipPath78">
      <path
         d="M 0,500 H 750 V 0 H 0 Z"
         transform="translate(-501.84181,-225.7314)"
         id="path78" />
    </clipPath>
    <clipPath
       clipPathUnits="userSpaceOnUse"
       id="clipPath80">
      <path
         d="M 0,500 H 750 V 0 H 0 Z"
         transform="translate(-377.75591,-312.04931)"
         id="path80" />
    </clipPath>
    <clipPath
       clipPathUnits="userSpaceOnUse"
       id="clipPath82">
      <path
         d="M 0,500 H 750 V 0 H 0 Z"
         transform="translate(-393.80661,-299.84331)"
         id="path82" />
    </clipPath>
    <clipPath
       clipPathUnits="userSpaceOnUse"
       id="clipPath84">
      <path
         d="M 0,500 H 750 V 0 H 0 Z"
         transform="translate(-388.97751,-309.14261)"
         id="path84" />
    </clipPath>
    <clipPath
       clipPathUnits="userSpaceOnUse"
       id="clipPath86">
      <path
         d="M 0,500 H 750 V 0 H 0 Z"
         transform="translate(-366.70801,-353.03711)"
         id="path86" />
    </clipPath>
    <clipPath
       clipPathUnits="userSpaceOnUse"
       id="clipPath88">
      <path
         d="M 0,500 H 750 V 0 H 0 Z"
         transform="translate(-375.04201,-352.08981)"
         id="path88" />
    </clipPath>
    <clipPath
       clipPathUnits="userSpaceOnUse"
       id="clipPath90">
      <path
         d="M 0,500 H 750 V 0 H 0 Z"
         transform="translate(-371.58351,-365.28961)"
         id="path90" />
    </clipPath>
    <clipPath
       clipPathUnits="userSpaceOnUse"
       id="clipPath92">
      <path
         d="M 0,500 H 750 V 0 H 0 Z"
         transform="translate(-386.12601,-335.00831)"
         id="path92" />
    </clipPath>
    <clipPath
       clipPathUnits="userSpaceOnUse"
       id="clipPath94">
      <path
         d="M 0,500 H 750 V 0 H 0 Z"
         transform="translate(-396.98931,-361.43551)"
         id="path94" />
    </clipPath>
    <clipPath
       clipPathUnits="userSpaceOnUse"
       id="clipPath96">
      <path
         d="M 0,500 H 750 V 0 H 0 Z"
         transform="translate(-406.30761,-367.11081)"
         id="path96" />
    </clipPath>
    <clipPath
       clipPathUnits="userSpaceOnUse"
       id="clipPath98">
      <path
         d="M 0,500 H 750 V 0 H 0 Z"
         transform="translate(-395.92191,-366.97271)"
         id="path98" />
    </clipPath>
    <clipPath
       clipPathUnits="userSpaceOnUse"
       id="clipPath100">
      <path
         d="M 0,500 H 750 V 0 H 0 Z"
         transform="translate(-392.35351,-218.06051)"
         id="path100" />
    </clipPath>
    <clipPath
       clipPathUnits="userSpaceOnUse"
       id="clipPath102">
      <path
         d="M 0,500 H 750 V 0 H 0 Z"
         transform="translate(-482.52441,-199.90331)"
         id="path102" />
    </clipPath>
    <clipPath
       clipPathUnits="userSpaceOnUse"
       id="clipPath104">
      <path
         d="M 0,500 H 750 V 0 H 0 Z"
         transform="translate(-482.52441,-199.90331)"
         id="path104" />
    </clipPath>
    <clipPath
       clipPathUnits="userSpaceOnUse"
       id="clipPath106">
      <path
         d="M 0,500 H 750 V 0 H 0 Z"
         transform="translate(-531.80962,-154.1504)"
         id="path106" />
    </clipPath>
    <clipPath
       clipPathUnits="userSpaceOnUse"
       id="clipPath108">
      <path
         d="M 0,500 H 750 V 0 H 0 Z"
         transform="translate(-560.14061,-145.5039)"
         id="path108" />
    </clipPath>
    <clipPath
       clipPathUnits="userSpaceOnUse"
       id="clipPath110">
      <path
         d="M 0,500 H 750 V 0 H 0 Z"
         transform="translate(-423.87601,-287.5635)"
         id="path110" />
    </clipPath>
    <clipPath
       clipPathUnits="userSpaceOnUse"
       id="clipPath112">
      <path
         d="M 0,500 H 750 V 0 H 0 Z"
         transform="translate(-431.46481,-288.9429)"
         id="path112" />
    </clipPath>
    <clipPath
       clipPathUnits="userSpaceOnUse"
       id="clipPath114">
      <path
         d="M 0,500 H 750 V 0 H 0 Z"
         transform="translate(-441.25201,-314.26611)"
         id="path114" />
    </clipPath>
    <clipPath
       clipPathUnits="userSpaceOnUse"
       id="clipPath116">
      <path
         d="M 0,500 H 750 V 0 H 0 Z"
         transform="translate(-556.96681,-169.7324)"
         id="path116" />
    </clipPath>
    <clipPath
       clipPathUnits="userSpaceOnUse"
       id="clipPath118">
      <path
         d="M 0,500 H 750 V 0 H 0 Z"
         transform="translate(-593.49412,-179.6484)"
         id="path118" />
    </clipPath>
    <linearGradient
       xlink:href="#swatch137"
       id="linearGradient138"
       x1="28.777344"
       y1="283.6084"
       x2="100.07812"
       y2="283.6084"
       gradientUnits="userSpaceOnUse" />
    <radialGradient
       xlink:href="#linearGradient1"
       id="radialGradient2"
       cx="-56.881"
       cy="3.325"
       fx="-56.881"
       fy="3.325"
       r="88.571"
       gradientTransform="matrix(1,0,0,0.33050321,0,2.2260768)"
       gradientUnits="userSpaceOnUse" />
  </defs>
  <path
     style="fill:none;stroke:url(#linearGradient138);stroke-linecap:round;stroke-linejoin:bevel"
     d="m 99.578125,283.60937 c 0,-16.36483 -15.798797,-29.52929 -35.150391,-29.52929 -19.351593,0 -35.15039,13.16446 -35.15039,29.52929 0,12.24238 7.307858,20.29609 19.864199,24.78424 m -3.418837,-4.81818 c -12.406023,-4.22565 -15.2188,-8.15366 -15.2188,-19.96606 0,-15.57342 15.126953,-28.30273 33.923828,-28.30273 18.796876,0 33.923828,12.72931 33.923828,28.30273 0,11.7034 -6.579606,15.73096 -18.80302,20.02605"
     id="path1"
     transform="translate(-27.926898,-253.08762)" />
  <g
     id="layer4"
     transform="matrix(1.4650456,0,0,1.4650456,-86.936334,-242.35016)">
    <path
       id="path2"
       d="m 82.867142,178.99042 -0.356832,-0.034 -0.03843,-0.2115 -0.241899,-0.0191 v -0.32645 l 0.104287,-0.15751 0.191612,0.39949 0.146171,-0.20364 z"
       style="fill:#ffffff;fill-opacity:1;fill-rule:nonzero;stroke:none;stroke-width:0.0771361" />
    <path
       id="path3"
       d="m 0,0 -4.452,-8.03 -10.247,-8.38 -11.038,-13.116 6.255,9.97 6.788,7.313 7.589,6.604 2.208,8.38 -9.834,-11.985 -8.738,-6.274 L -3.643,6.338 0.919,27.834 1.49,17.395 1.141,12.786 3.146,10.863 -0.552,7.653 Z m -49.451,-50.278 6.329,8.959 9.401,6.899 z m 57.362,71.821 2.658,-0.939 -0.258,-7.938 -2.493,4.765 z m 112.477,-28.616 6.798,4.921 -1.638,2.603 3.082,1.352 4.728,5.252 5.74,-0.865 -2.705,-4.001 -1.444,1.637 -2.99,-5.785 2.171,-2.125 -9.502,-2.796 -0.331,-6.651 -6.806,-6.126 5.353,8.297 z m -25.24,-6.476 21.965,24.154 5.694,0.092 -6.08,-8.287 z M 92.82,-2.64 98.303,-1.085 97.871,-3.634 84.533,-10.32 Z m -0.561,5.786 11.563,6.3 -12.86,-11.654 1.555,3.882 z m 438.468,-56.166 -22.334,-2.483 -34.926,-8.407 -18.092,3.9 -3.791,4.617 -3.118,-3.173 -5.124,-0.221 -6.07,-2.898 -2.787,4.342 -16.208,-9.631 -9.41,-8.747 -3.081,-0.11 -8.638,-8.353 -18.037,0.286 -19.272,8.352 -29.774,18.848 -24.826,16.373 -5.906,-0.414 -22.821,15.83 -5.16,6.098 -8.804,4.425 -13.475,7.138 -6.982,3.44 4.701,-4.986 4.755,-0.883 7.046,-5.647 0.837,-5.087 8.003,-4.995 5.51,-6.291 15.315,-15.159 10.891,-5.492 11.268,-6.926 -7.58,-0.442 20.026,-8.453 11.295,-11.995 -20.632,13.964 -17.928,6.263 14.129,-12.62 11.397,-14.468 -16.851,16.142 -14.203,7.672 -6.926,4.011 -11.921,5.831 5.739,-4.765 7.617,-7.34 -8.27,3.827 -11.497,6.448 4.461,-0.156 -7.607,7.716 -5.704,8.923 10.551,-6.917 6.108,-4.425 -3.155,6.615 14.147,-6.265 -7.736,9.18 -7.101,7.028 -7.598,8.241 -10.118,7.764 -8.582,6.107 6.89,-7.928 5.518,-9.908 -11.948,12.557 5.022,-6.577 6.559,-9.906 -6.679,7.22 -6.503,6.687 -5.141,7.101 -4.793,2.934 0.589,-2.989 8.103,-8.922 12.657,-12.924 -14.91,12.252 -12.28,12.473 -0.156,-1.987 -2.493,1.362 -5.841,7.533 -6.163,3.542 -5.648,-4.958 -8.37,8.039 -6.614,4.167 -4.194,4.644 -8.849,3.147 -5.74,4.25 3.477,-7.102 11.195,-16.897 -9.76,10.081 -2.355,-0.027 7.101,-10.192 12.345,-14.212 9.759,-8.471 12.639,-7.819 7.579,-8.407 7.377,-9.814 5.077,-8.711 -9.998,6.779 -1.03,2.694 1.509,1.151 -6.532,5.997 -7.294,0.515 -4.617,5.5 -9.64,2.199 11.59,-9.014 10.007,-14.589 -8.655,-1.417 -8.959,1.04 -2.76,-2.171 -15.591,6.586 -0.221,5.308 -3.174,7.754 -2.833,13.659 -9.74,13.053 -4.048,-7.625 -0.754,-3.717 -5.372,7.01 -3.523,-3.293 -7.441,1.397 -6.807,-3.991 -3.477,1.894 -13.191,-4.581 3.763,4.967 8.067,2.714 7.827,-0.037 6.678,3.836 9.686,3.091 6.816,6.209 3.45,8.048 -2.806,5.86 -0.938,5.298 -2.815,-3.312 -1.417,2.079 -5.629,-6.632 -8.655,-4.314 7.524,6.246 6.043,8.002 5.86,6.246 1.37,12.51 -4.424,-1.104 -0.285,4.921 7.468,-3.293 5.023,-6.852 0.092,2.933 7.957,-6.871 -5.768,8.049 -9.263,7.432 -6.117,1.141 -7.956,1.619 -4.599,0.929 -5.326,-9.254 -12.399,-10.651 -2.502,3.982 -6.513,-4.654 -7.745,0.976 -2.3,1.25 -2.492,-2.805 L 89.905,3.018 78.177,-3.597 68.509,-5.096 56.156,-15.526 42.303,-3.109 26.979,8.536 25.985,9.29 l -0.735,1.692 0.11,-6.208 2.18,-0.588 0.874,-7.092 2.226,0.036 0.441,-4.848 4.047,-2.667 0.478,5.943 8.059,-8.537 0.791,4.424 14.487,-14.275 22.692,-10.128 21.368,-3.247 21.598,-25.295 -13.614,11.065 -4.829,-0.073 5.197,-13.163 -8.012,7.745 -4.176,6.42 -6.135,2.843 4.213,-7.212 -7.8,6.394 -4.94,-0.783 -11.075,12.712 -18.562,3.836 2.236,-7.653 5.279,-5.703 7.157,-10.118 -8.086,7.634 6.135,-9.465 -8.637,9.134 -7.064,9.29 -6.301,14.552 -4.737,4.131 -11.066,8.435 4.167,-6.541 4.397,-9.934 3.412,-11.765 -5.519,10.67 -2.98,8.573 -5.096,7.369 0.037,-7.36 -1.334,-5.574 2.705,-11.682 -4.002,6.946 -3.55,-0.58 -0.515,-5.768 -4.664,-8.803 -11.986,-11.138 4.738,14.625 3.329,8.941 3.413,6.034 -5.151,3.762 -6.567,-0.81 9.088,7.166 -0.985,2.327 2.364,4.701 4.747,6.558 0.275,8.647 -2.308,3.504 0.147,10.311 -2.723,2.052 -3.955,7.763 -0.331,-3.523 -2.502,1.195 -3.201,8.978 -17.082,-18.415 -6.733,-1.002 -1.002,-3.275 -2.999,-3.55 -0.368,-5.823 -7.46,-9.005 0.368,-9.594 -2.723,-2.529 -2.815,1.314 -0.745,-4.782 -4.221,0.377 -12.565,-29.068 -19.97,-18.754 -9.18,-28.387 c -2.843,-15.187 -5.694,-30.373 -8.546,-45.55 -0.533,-2.198 16.438,22.306 16.438,22.306 l 5.648,-5.657 6.365,8.72 12.013,8.72 3.072,5.657 7.534,-11.314 6.365,4.71 8.426,-12.225 8.343,-8.039 9.354,-14.441 24.413,-10.882 7.727,0.616 19.932,-4.783 29.086,-0.718 4.378,2.852 9.355,-1.325 7.423,8.242 4.682,-1.426 9.152,13.935 6.917,1.831 1.831,3.661 4.976,-2.539 20.172,18.222 8.224,-12.289 8.131,-1.324 6.291,-5.887 18.71,-10.477 18.82,-6.909 17.008,15.316 3.808,-6.108 6.402,9.015 8.315,6.907 2.696,5.805 2.106,-5.905 7.809,8.655 4.701,3.505 5.51,12.51 6.705,-5.206 7.303,10.412 1.703,3.698 1.903,-1.5 8.003,6.504 2.704,2.804 5.805,-9.105 8.609,4.351 2.097,-4.305 2.907,-3.303 2.005,-10.403 3.698,1.499 8.508,-11.709 5.602,-7.404 3.504,2.298 16.327,-8.646 12.658,-3.146 23.014,-2.456 3.993,-17.412 21.662,10.192 26.712,7.129 -1.786,2.207 10.625,7.313 15.545,4.498 -0.257,-6.881 23.106,9.815 4.673,9.088 7.046,6.117 5.518,6.54 6.034,-6.374 7.985,-10.956 4.802,5.225 2.464,-4.93 27.118,-5.933 z"
       style="fill:#212b43;fill-opacity:1;fill-rule:nonzero;stroke:none"
       transform="matrix(0.07713627,0,0,-0.07713627,66.345822,193.40376)"
       clip-path="url(#clipPath4)" />
    <path
       id="path5"
       d="M 0,0 -5.758,7.377 3.045,0.258 Z M 57.619,-27.199 71.232,-38.265 49.634,-12.97 28.267,-9.723 5.574,0.405 -8.913,14.681 l -0.791,-4.424 -8.058,8.536 -0.478,-5.942 -4.048,2.667 -0.441,4.847 -2.226,-0.036 -0.874,7.092 -2.18,0.589 -0.11,6.208 -5.722,13.219 -10.367,15.195 -3.927,-4.232 3.201,-8.977 2.502,-1.195 0.331,3.522 3.955,-7.763 2.723,-2.051 -0.147,-10.312 2.309,-3.504 -0.276,-8.646 -4.747,-6.559 -2.363,-4.7 0.984,-2.327 -9.088,-7.166 6.567,0.809 5.151,-3.761 -3.412,-6.035 -3.33,-8.941 -4.737,-14.625 11.985,11.139 4.664,8.802 0.515,5.768 3.551,0.58 4.001,-6.945 -2.704,11.681 1.333,5.575 -0.037,7.359 5.097,-7.368 2.98,-8.573 5.519,-10.67 -3.413,11.764 -4.396,9.935 -4.167,6.54 11.065,-8.435 4.737,-4.131 6.301,-14.551 7.064,-9.29 8.638,-9.134 -6.136,9.465 8.086,-7.635 -7.156,10.118 -5.28,5.703 -2.235,7.654 18.562,-3.836 11.075,-12.712 4.939,0.782 7.8,-6.394 -4.212,7.212 6.135,-2.843 4.176,-6.419 8.012,-7.746 -5.197,13.164 z"
       style="fill:none;fill-opacity:1;fill-rule:nonzero;stroke:none"
       transform="matrix(0.07713627,0,0,-0.07713627,70.462483,195.19605)"
       clip-path="url(#clipPath6)" />
    <path
       id="path7"
       d="m 0,0 -15.729,-15.858 6.328,8.959 z"
       style="fill:#ffffff;fill-opacity:1;fill-rule:nonzero;stroke:none"
       transform="matrix(0.07713627,0,0,-0.07713627,63.744702,196.05878)"
       clip-path="url(#clipPath8)" />
    <path
       id="path9"
       d="m 0,0 0.552,-7.653 -4.452,-8.031 -10.247,-8.379 -11.038,-13.117 6.255,9.971 6.788,7.313 7.589,6.604 2.208,8.38 -9.834,-11.985 -8.738,-6.274 L -3.09,-1.315 1.472,20.181 2.042,9.741 1.693,5.133 3.698,3.21 Z"
       style="fill:#ffffff;fill-opacity:1;fill-rule:nonzero;stroke:none"
       transform="matrix(0.07713627,0,0,-0.07713627,66.303227,192.81341)"
       clip-path="url(#clipPath10)" />
    <path
       id="path11"
       d="M 0,0 -3.045,-0.258 -8.803,7.119 Z"
       style="fill:#212b43;fill-opacity:1;fill-rule:nonzero;stroke:none"
       transform="matrix(0.07713627,0,0,-0.07713627,70.697356,195.17616)"
       clip-path="url(#clipPath12)" />
    <path
       id="path13"
       d="m 0,0 -0.258,-7.938 -2.492,4.764 0.092,4.112 z"
       style="fill:#ffffff;fill-opacity:1;fill-rule:nonzero;stroke:none"
       transform="matrix(0.07713627,0,0,-0.07713627,67.161066,191.8144)"
       clip-path="url(#clipPath14)" />
    <path
       id="path15"
       d="M 0,0 -6.08,-8.287 -27.659,-24.246 -5.694,-0.092 Z"
       style="fill:#ffffff;fill-opacity:1;fill-rule:nonzero;stroke:none"
       transform="matrix(0.07713627,0,0,-0.07713627,75.818711,192.57861)"
       clip-path="url(#clipPath16)" />
    <path
       id="path17"
       d="m 0,0 -0.432,-2.549 -13.338,-6.686 8.288,7.68 z"
       style="fill:#ffffff;fill-opacity:1;fill-rule:nonzero;stroke:none"
       transform="matrix(0.07713627,0,0,-0.07713627,73.928532,193.48745)"
       clip-path="url(#clipPath18)" />
    <path
       id="path19"
       d="m 0,0 1.555,3.882 -0.258,1.472 11.562,6.3 z"
       style="fill:#ffffff;fill-opacity:1;fill-rule:nonzero;stroke:none"
       transform="matrix(0.07713627,0,0,-0.07713627,73.362321,193.57408)"
       clip-path="url(#clipPath20)" />
    <path
       id="path21"
       d="m 0,0 -2.705,-4.001 -1.443,1.637 -2.99,-5.785 2.171,-2.125 -9.502,-2.796 -0.331,-6.652 -6.807,-6.126 5.353,8.297 -2.455,4.287 6.797,4.921 -1.637,2.604 3.081,1.351 4.728,5.252 z"
       style="fill:#ffffff;fill-opacity:1;fill-rule:nonzero;stroke:none"
       transform="matrix(0.07713627,0,0,-0.07713627,77.075299,192.92625)"
       clip-path="url(#clipPath22)" />
    <path
       id="path23"
       d="m 0,0 5.428,4.471 1.407,-17.257 -9.106,5.17 -5.878,9.631 -1.656,-2.714 -5.611,0.607 -5.602,7.625 -7.975,15.942 8.757,11.469 -3.762,-1.223 -3.762,6.743 -9.024,5.344 8.058,0.965 -5.344,15.417 6.484,-6.393 6.743,-12.436 8.582,1.131 -5.078,-5.601 1.141,-4.296 5.427,6.66 -2.189,-8.407 -2.897,-10.597 22.867,-1.932 -8.058,-8.14 z m -31.1,-5.445 3.358,-6.973 -6.218,4.627 -2.088,8.692 -4.885,10.836 -6.024,6.982 9.704,-5.832 2.658,7.672 3.11,-14.396 -3.358,1.334 7.607,-11.167 -2.915,7.864 11.221,-16.87 z m -1.563,-20.449 -5.279,5.832 -3.911,5.069 -4.525,1.72 -3.155,5.215 -8.094,6.862 -4.6,1.298 -3.228,4.598 v 10.431 l -8.214,20.007 -0.534,11.884 -1.876,-4.701 -2.695,10.68 3.357,0.331 -5.298,6.513 -2.686,3.899 9.198,-4.636 5.188,-7.625 3.91,-7.129 4.727,-2.953 10.432,-2.952 3.081,1.784 9.539,-8.02 -3.22,-1.582 -7.341,6.107 -0.616,-3.983 -6.181,4.535 -3.569,-2.889 -4.939,6.725 -0.203,-10.155 -3.219,2.75 2.401,-8.03 7.202,-16.391 -6.384,8.434 5.28,-13.172 5.216,-4.737 10.09,-8.775 7.479,-9.198 7.404,-11.526 z m -27.576,10.422 -1.298,-6.512 -3.09,6.375 -3.293,2.06 -10.155,20.447 -1.095,9.328 7.065,-10.293 V 2.438 l 4.866,-9.604 -0.755,8.021 6.246,-12.418 -0.957,9.54 4.939,-9.944 1.509,-9.06 z m -21.037,35.92 -3.477,-8.766 -7.534,11.01 0.221,7.534 -7.396,6.3 -0.073,-4.488 -8.684,6.807 4.995,-7.533 10.073,-19.556 -4.498,2.685 -5.427,5.216 -9.567,2.53 -5.353,4.129 -0.294,2.171 -11.949,8.84 14.92,-23.907 -13.182,9.641 2.171,-6.955 -7.607,5.363 -2.391,10.569 -7.019,3.772 -3.698,3.761 -1.443,-2.97 -4.131,-0.433 -7.975,8.186 -7.092,14.773 3.551,5.216 0.579,2.823 2.825,-3.108 5.794,-1.528 -3.118,7.966 4.563,0.947 -8.767,6.881 3.193,-9.125 -7.985,7.883 1.959,-5.262 -11.525,8.233 -5.695,5.262 -1.342,6.163 5.886,0.533 -0.045,1.858 5.592,6.274 2.3,-1.15 4.921,3.007 1.297,3.496 5.832,-8.039 6.65,-6.835 12.198,-11.866 1.388,-8.61 -3.21,3.165 -6.025,1.573 -3.826,-2.779 4.544,-3.917 5.978,-0.718 -0.431,1.96 4.157,-0.433 3.836,-3.394 4.783,-2.29 7.598,-1.197 3.78,-4.019 6.071,-4.066 3.109,-6.889 3.689,1.417 5.933,-8.049 7.101,-7.46 9.704,-5.427 -1.738,-2.751 z m -101.449,91.698 2.124,6.853 4.95,-3.449 -0.111,3.679 4.259,-0.864 7.313,-5.979 -0.12,-4.553 -8.977,-1.721 z m 29.581,4.839 4.14,-0.975 -7.598,-2.245 0.58,2.76 -2.125,5.639 z m 10.478,19.335 -4.148,2.768 1.784,-6.163 -4.719,6.964 -1.205,4.608 z m 14.937,-5.188 8.362,-14.331 3.238,-3.79 1.15,-2.189 4.424,-2.833 3.137,-12.299 -4.829,-0.846 -9.502,6.32 -0.552,4.884 2.346,-0.101 -3.79,10.403 -4.775,9.852 z m 27.145,-39.673 -3.458,-1.26 -1.371,-4.029 -5.188,6.494 z m 4.342,-12.638 8.848,-13.191 4.95,-10.679 0.22,-4.893 -8.398,9.456 4.397,-8.96 2.116,-10.173 -11.912,23.308 -4.563,8.509 -5.169,6.062 -1.113,6.898 2.447,-3.109 3.118,-6.788 5.114,-4.783 -4.167,7.561 -0.836,3.504 z m 23.677,15.573 -4.94,1.867 -0.561,-4.848 -1.582,9.778 z m 9.271,-17.615 6.715,-3.265 8.619,-6.016 -9.41,2.989 -5.086,2.934 -1.205,-9.971 -0.562,10.854 z m 12.814,8.941 -1.904,-1.996 2.327,-2.898 4.195,-11.176 -5.961,10.854 -4.995,5.123 -3.725,5.501 z m 2.751,3.035 1.958,-10.532 -2.704,6.752 -3.909,4.617 -4.664,6.715 z m 8.719,7.221 3.266,-4.655 3.817,-0.892 1.031,-4.148 2.741,-5.216 -5.824,1.067 -6.806,6.623 -1.674,7.92 z m -156.703,-53.093 0.386,-3.091 -6.724,9.198 -2.622,6.725 2.098,0.477 -2.621,4.48 7.772,-6.77 8.582,0.902 3.238,-3.762 -7.386,0.947 6.963,-6.862 6.052,-9.198 z m 9.521,148.774 4.433,0.276 -5.74,-3.403 z m -8.5,-10.045 c -0.055,0.028 -0.111,0.047 -0.175,0.074 l 0.166,0.202 -0.129,5.023 3.753,-0.653 -3.624,-4.37 z m -1.959,6.366 -2.373,3.541 6.879,0.276 z m -12.142,-25.461 -5.574,1.665 -2.695,2.345 7.147,-1.573 1.343,0.838 4.617,-1.546 2.015,-4.415 z m -10.661,14.422 4.378,1.997 2.052,-2.024 z m -7.11,3.827 3.007,-4.259 -8.241,7.819 1.977,-4.305 -3.385,2.217 1.527,10.348 4.93,-6.153 3.652,1.655 7.837,-7.782 -6.098,-2.447 z m 10.081,9.346 -0.617,-2.024 -5.049,2.723 z m -17.606,19.5 3.68,6.016 3.734,-0.69 10.744,5.225 6.126,-9.806 -2.934,0.893 -5.878,4.728 -9.999,-6.366 5.271,-12.445 0.101,-6.862 -2.391,-2.539 -6.072,6.77 -0.293,12.593 z m 9.199,22.941 1.352,2.042 2.483,-5.178 1.895,2.639 2.53,-7.165 -4.627,0.441 -0.497,2.741 -3.136,0.249 z m -11.884,-101.89 0.441,-6.77 -2.291,-3.082 z m -4.581,43.719 -6.725,-10.007 -0.791,-6.319 -0.147,8.756 6.917,8.757 -0.551,8.711 3.633,6.871 0.101,-6.466 z m -14.488,-34.015 3.385,4.728 1.398,4.976 0.147,-6.365 z m -4.627,-9.208 -11.194,-13.484 -3.983,-8.012 -4.323,-3.284 7.165,12.243 -5.279,-4.875 -4.673,-7.865 -7.12,-3.983 3.633,7.414 9.852,8.315 14.386,14.525 4.176,1.941 z m -5.371,-16.023 -5.768,-4.673 10.992,15.021 z m -5.823,21.349 -1.794,-4.479 -3.477,-2.042 z m 9.502,7.966 -4.029,-7.819 -2.98,-1.941 1.784,4.434 z m 0.598,4.673 -5.97,-6.467 -5.767,-3.43 z m 3.44,29.582 3.78,5.427 -3.881,-9.153 z m -54.39,-100.805 -7.083,-7.994 6.513,10.965 7.57,14.156 z m -28.386,-17.054 -11.82,-2.898 -9.051,7.994 7,-3.045 6.089,-2.125 12.105,6.661 2.263,-0.856 z m -2.475,35.524 -2.336,-5.234 -10.477,-6.65 6.936,9.272 z m -11.893,6.586 7.644,0.212 -3.036,-4.388 -4.323,-0.708 -4.673,-2.474 z m -11.176,-38.568 -3.68,5.73 5.731,-4.746 z m -4.783,-23.815 -5.298,0.92 -11.471,-4.599 12.179,7.073 5.942,1.132 z M 72.4,-2.4 48.154,11.277 l 6.678,-13.2 13.31,-13.586 -5.952,0.185 -6.917,6.475 1.399,-10.072 -4.82,12.179 -8.674,12.518 -4.113,2.981 -0.312,5.813 -8.766,1.693 -7.239,9.079 0.929,-3.846 -4.232,2.153 -5.849,9.309 -2.383,-2.843 -5.62,4.232 -2.925,6.769 -0.387,-4.387 -8.388,11.351 -3.045,2.198 5.592,5.731 9.862,-7.727 -24.607,45.275 -6.172,-2.181 -2.805,1.84 h -3.477 l -10.449,17.109 -7.543,10.054 -9.281,-6.282 -4.351,-0.773 -3.182,-2.511 -3.873,3.375 -12.178,-9.759 h -5.225 l -6.862,-4.066 -0.691,1.076 -0.431,-3.559 -3.882,6.475 -6.715,5.474 -3.983,9.759 -3.09,1.987 -0.543,6.025 -2.594,3.881 3.283,-1.545 0.304,4.489 v 0.009 l -0.414,2.474 2.972,5.952 -12.547,10.789 -8.748,9.015 -16.078,2.143 -7.258,9.668 -5.483,13.209 -9.281,8.563 0.727,-2.943 4.93,-4.369 0.074,-3.395 6.678,-13.301 3.504,-3.182 3.818,-6.366 5.344,-2.676 9.428,-9.033 6.55,-7.58 0.45,-7.064 h -3.753 l -0.386,5.988 -2.861,1.904 -10.246,9.999 -2.612,4.323 -6.936,-2.032 1.012,-2.484 -2.356,-1.913 2.356,-2.861 0.763,-7.129 -4.01,-1.784 -7.442,0.57 -2.612,9.171 -6.302,-5.602 -4.396,2.161 -3.366,-1.398 -6.817,3.119 7.764,2.354 6.43,-2.419 7.008,4.139 0.12,3.505 2.742,3.946 -0.745,2.3 -4.416,0.478 -1.564,16.52 1.076,8.785 -2.731,2.299 -2.76,1.049 -5.142,7.092 -3.707,5.804 -3.384,3.229 -5.924,10.983 -5.722,3.624 -2.529,4.948 -3.938,1.905 -6.346,6.972 0.23,3.468 -2.824,3.182 -2.732,1.904 -13.742,-14.377 -3.266,-0.809 -4.802,-6.623 -5.537,-7.441 -2.079,-0.267 -4.176,-8.711 -4.535,-10.698 -2.906,-0.91 -3.532,-4.351 0.726,-4.36 -4.268,-7.341 -0.266,-12.969 -2.907,-3.542 -5.087,-11.856 -4.249,-11.627 -5.786,-6.577 -5.161,-12.813 -6.576,4.139 -6.835,-6.126 -8.223,-0.396 -8.389,-7.772 -8.058,-1.132 -5.896,-5.27 -8.444,-0.23 -8.683,6.779 -7.938,-0.8 -6.403,-11.682 -3.063,-0.616 -4.359,-9.199 -5.308,-2.125 -4.185,-10.504 -6.927,-6.42 -8.159,-11.563 -8.379,-9.677 15.324,-11.645 13.853,-12.417 12.353,10.43 9.668,1.499 11.728,6.615 21.147,16.529 2.492,2.805 2.3,-1.25 7.745,-0.976 6.513,4.654 2.502,-3.982 12.399,10.651 5.326,9.254 4.599,-0.929 -7.147,5.758 -5.216,8.858 -3.486,7.478 3.615,1.224 7.699,4.047 6.172,-0.368 9.75,7.267 4.039,0.386 0.606,2.171 7.893,7.92 1.803,-2.741 4.075,-0.516 2.17,-1.857 1.491,1.665 7.064,0.358 3.247,-0.175 3.689,4.48 0.882,4.314 1.169,5.307 4.323,6.522 -6.191,-1.564 -0.101,-3.155 -0.441,-2.088 -1.637,0.727 -0.543,3.881 -2.723,-1.94 1.61,5.427 -0.874,6.761 -1.021,6.273 1.6,3.265 -2.548,4.462 -3.155,9.768 4.176,9.695 5.317,-6.871 5.887,-6.485 4.149,-1.6 1.416,-2.171 5.308,-2.695 6.723,-7.948 3.073,-10.311 4.176,-0.037 1.683,-6.116 5.142,-2.539 8.04,-5.933 1.49,-4.48 -3.229,1.178 1.058,-7.101 -3.578,-0.019 -9.539,4.148 4.921,-6.705 4.71,-8.996 6.209,-4.673 -3.699,0.055 -5.233,1.361 2.125,-4.084 -8.757,6.246 3.872,-5.261 0.046,-3.22 -14.202,13.356 6.503,-8.131 18.811,-19.823 9.309,-9.741 3.734,-8.168 -3.569,0.764 -3.155,6.016 -6.724,2.667 -2.87,0.313 -12.767,7.515 4.047,-5.363 -7.468,1.334 3.072,-3.321 3.2,-6.844 -8.443,8.758 -14.553,0.358 -2.437,5.271 -6.135,10.615 -12.621,12.528 -1.361,-2.502 -5.914,7.092 -4.241,5.289 -4.424,-5.666 -3.698,-1.343 8.104,-11.314 1.996,-3.836 8.664,-5.648 0.295,-2.327 3.597,-2.373 5.61,-9.898 12.198,-2.602 4.691,-14.368 -1.527,-0.746 -9.75,9.502 1.251,-5.674 -6.283,4.837 0.616,-4.829 -4.295,5.897 7.009,-16.373 -17.22,11.221 7.175,-8.259 9.521,-4.416 6.485,-2.336 14.919,-4.646 15.398,-4.323 1.315,-1.397 6.982,-3.441 13.475,-7.138 8.804,-4.424 5.16,-6.099 22.821,-15.83 5.906,0.414 24.826,-16.373 29.774,-18.848 19.272,-8.352 18.037,-0.285 8.638,8.352 3.081,0.11 9.41,8.748 16.208,9.63 2.787,-4.341 6.07,2.897 5.124,0.221 3.119,3.174 3.79,-4.618 18.092,-3.9 34.926,8.407 22.334,2.484 z"
       style="fill:#313b52;fill-opacity:1;fill-rule:nonzero;stroke:none"
       transform="matrix(0.07713627,0,0,-0.07713627,99.577207,196.33765)"
       clip-path="url(#clipPath24)" />
    <path
       id="path25-3"
       d="m 0,0 -6.917,6.476 1.398,-10.073 -4.82,12.179 -8.674,12.519 -4.112,2.98 -0.312,5.814 -8.766,1.692 -7.239,9.079 0.928,-3.846 -4.231,2.154 -5.85,9.308 -2.383,-2.843 -5.62,4.232 -2.924,6.769 -0.387,-4.386 -8.389,11.35 -3.045,2.199 5.593,5.73 9.861,-7.727 2.759,-5.077 10.247,-9.622 26.731,-21.11 2.116,-1.195 6.678,-13.201 13.309,-13.586 z"
       style="fill:#ffffff;fill-opacity:1;fill-rule:nonzero;stroke:none"
       transform="matrix(0.07713627,0,0,-0.07713627,104.37434,197.5197)"
       clip-path="url(#clipPath26)" />
    <path
       id="path27-2"
       d="m 0,0 -0.432,-3.56 -3.881,6.476 -6.715,5.473 -3.984,9.759 -3.09,1.987 -0.543,6.025 -2.593,3.882 3.283,-1.545 0.304,4.488 1.159,-7 z"
       style="fill:#ffffff;fill-opacity:1;fill-rule:nonzero;stroke:none"
       transform="matrix(0.07713627,0,0,-0.07713627,92.296044,188.51299)"
       clip-path="url(#clipPath28)" />
    <path
       id="path29-6"
       d="M 0,0 H -3.753 L -4.139,5.988 -7,7.893 l -10.246,9.998 -2.612,4.323 -6.936,-2.032 1.012,-2.484 -2.356,-1.913 2.356,-2.861 0.762,-7.129 -4.009,-1.784 -7.442,0.57 -2.612,9.171 -6.302,-5.602 -4.396,2.162 -3.366,-1.398 -6.817,3.118 7.764,2.354 6.429,-2.419 7.009,4.139 0.12,3.505 2.742,3.946 -0.746,2.3 -4.416,0.478 -1.563,16.52 1.076,8.785 -2.731,2.299 -2.76,1.049 -5.142,7.092 -3.707,5.804 -3.384,3.229 -5.924,10.983 -5.722,3.624 -2.529,4.948 -3.938,1.905 -6.346,6.972 0.23,3.468 -2.824,3.182 7.156,-4.985 9.069,-11.701 13.89,-16.041 14.699,-13.55 0.009,-0.009 0.727,-2.943 4.93,-4.369 0.074,-3.395 6.678,-13.301 3.504,-3.182 3.818,-6.365 5.344,-2.677 9.428,-9.033 6.55,-7.58 z"
       style="fill:#ffffff;fill-opacity:1;fill-rule:nonzero;stroke:none"
       transform="matrix(0.07713627,0,0,-0.07713627,89.751675,185.82106)"
       clip-path="url(#clipPath30)" />
    <path
       id="path31-9"
       d="m 0,0 -7,-17.127 -7.083,-7.994 6.513,10.965 z"
       style="fill:#ffffff;fill-opacity:1;fill-rule:nonzero;stroke:none"
       transform="matrix(0.07713627,0,0,-0.07713627,76.010979,189.00752)"
       clip-path="url(#clipPath32)" />
    <path
       id="path33-4"
       d="m 0,0 -2.336,-5.234 -10.477,-6.65 6.935,9.272 z"
       style="fill:#ffffff;fill-opacity:1;fill-rule:nonzero;stroke:none"
       transform="matrix(0.07713627,0,0,-0.07713627,73.090577,188.90395)"
       clip-path="url(#clipPath34)" />
    <path
       id="path35-1"
       d="m 0,0 -3.036,-4.388 -4.323,-0.708 -4.673,-2.474 4.388,7.358 z"
       style="fill:#ffffff;fill-opacity:1;fill-rule:nonzero;stroke:none"
       transform="matrix(0.07713627,0,0,-0.07713627,72.762787,188.37958)"
       clip-path="url(#clipPath36)" />
    <path
       id="path37-3"
       d="m 0,0 -6.586,-5.731 -11.82,-2.898 -9.051,7.994 6.999,-3.045 6.09,-2.125 12.105,6.66 z"
       style="fill:#ffffff;fill-opacity:1;fill-rule:nonzero;stroke:none"
       transform="matrix(0.07713627,0,0,-0.07713627,73.78947,191.20206)"
       clip-path="url(#clipPath38)" />
    <path
       id="path39-7"
       d="m 0,0 -2.051,-0.984 -3.68,5.73 z"
       style="fill:#ffffff;fill-opacity:1;fill-rule:nonzero;stroke:none"
       transform="matrix(0.07713627,0,0,-0.07713627,71.46932,191.29502)"
       clip-path="url(#clipPath40)" />
    <path
       id="path41-8"
       d="m 0,0 -1.352,-4.525 -5.298,0.92 -11.471,-4.6 12.179,7.073 z"
       style="fill:#ffffff;fill-opacity:1;fill-rule:nonzero;stroke:none"
       transform="matrix(0.07713627,0,0,-0.07713627,71.046429,192.85884)"
       clip-path="url(#clipPath42)" />
    <path
       id="path43-8"
       d="m 0,0 -2.64,-2.935 -11.194,-13.484 -3.983,-8.012 -4.324,-3.284 7.166,12.243 -5.28,-4.875 -4.673,-7.864 -7.119,-3.983 3.633,7.414 9.852,8.315 14.386,14.524 z"
       style="fill:#ffffff;fill-opacity:1;fill-rule:nonzero;stroke:none"
       transform="matrix(0.07713627,0,0,-0.07713627,79.689189,185.99416)"
       clip-path="url(#clipPath44)" />
    <path
       id="path45-3"
       d="m 0,0 -5.225,-10.348 -5.767,-4.673 z"
       style="fill:#ffffff;fill-opacity:1;fill-rule:nonzero;stroke:none"
       transform="matrix(0.07713627,0,0,-0.07713627,79.474206,186.6583)"
       clip-path="url(#clipPath46)" />
    <path
       id="path47-8"
       d="m 0,0 -4.029,-7.819 -2.98,-1.941 1.784,4.434 z"
       style="fill:#ffffff;fill-opacity:1;fill-rule:nonzero;stroke:none"
       transform="matrix(0.07713627,0,0,-0.07713627,79.354999,185.19523)"
       clip-path="url(#clipPath48)" />
    <path
       id="path49-1"
       d="M 0,0 -1.793,-4.479 -5.271,-6.521 Z"
       style="fill:#ffffff;fill-opacity:1;fill-rule:nonzero;stroke:none"
       transform="matrix(0.07713627,0,0,-0.07713627,78.622051,185.80968)"
       clip-path="url(#clipPath50)" />
    <path
       id="path51-5"
       d="m 0,0 -5.97,-6.467 -5.767,-3.43 z"
       style="fill:#ffffff;fill-opacity:1;fill-rule:nonzero;stroke:none"
       transform="matrix(0.07713627,0,0,-0.07713627,79.401106,184.83477)"
       clip-path="url(#clipPath52)" />
    <path
       id="path53-3"
       d="m 0,0 -4.93,-3.339 3.385,4.728 1.398,4.976 z"
       style="fill:#ffffff;fill-opacity:1;fill-rule:nonzero;stroke:none"
       transform="matrix(0.07713627,0,0,-0.07713627,80.222741,185.2527)"
       clip-path="url(#clipPath54)" />
    <path
       id="path55-5"
       d="m 0,0 -2.291,-3.082 1.85,9.852 z"
       style="fill:#ffffff;fill-opacity:1;fill-rule:nonzero;stroke:none"
       transform="matrix(0.07713627,0,0,-0.07713627,81.347359,186.78104)"
       clip-path="url(#clipPath56)" />
    <path
       id="path57-4"
       d="m 0,0 -2.438,-10.302 -6.724,-10.008 -0.791,-6.319 -0.147,8.757 6.917,8.757 -0.551,8.71 3.633,6.872 z"
       style="fill:#ffffff;fill-opacity:1;fill-rule:nonzero;stroke:none"
       transform="matrix(0.07713627,0,0,-0.07713627,81.147964,182.09177)"
       clip-path="url(#clipPath58)" />
    <path
       id="path59-3"
       d="m 0,0 -3.881,-9.152 0.101,3.725 z"
       style="fill:#ffffff;fill-opacity:1;fill-rule:nonzero;stroke:none"
       transform="matrix(0.07713627,0,0,-0.07713627,79.958081,182.13434)"
       clip-path="url(#clipPath60)" />
    <path
       id="path61-6"
       d="m 0,0 -2.935,0.892 -5.878,4.728 -9.998,-6.365 5.27,-12.445 0.102,-6.863 -2.392,-2.538 -6.071,6.77 -0.294,12.592 -2.088,2.484 3.68,6.016 3.734,-0.69 10.744,5.224 z"
       style="fill:#ffffff;fill-opacity:1;fill-rule:nonzero;stroke:none"
       transform="matrix(0.07713627,0,0,-0.07713627,83.393653,180.11146)"
       clip-path="url(#clipPath62)" />
    <path
       id="path63-5"
       d="m 0,0 -4.829,-0.846 -9.502,6.319 -0.552,4.884 2.346,-0.101 -3.79,10.404 -4.775,9.851 0.791,4.93 8.362,-14.331 3.238,-3.789 1.149,-2.19 4.425,-2.833 z"
       style="fill:#ffffff;fill-opacity:1;fill-rule:nonzero;stroke:none"
       transform="matrix(0.07713627,0,0,-0.07713627,91.29138,188.95644)"
       clip-path="url(#clipPath64)" />
    <path
       id="path65-9"
       d="m 0,0 -3.458,-1.26 -1.371,-4.029 -5.188,6.494 z"
       style="fill:#ffffff;fill-opacity:1;fill-rule:nonzero;stroke:none"
       transform="matrix(0.07713627,0,0,-0.07713627,91.81853,189.28281)"
       clip-path="url(#clipPath66)" />
    <path
       id="path67-5"
       d="m 0,0 -5.823,1.067 -6.807,6.623 -1.674,7.92 3.45,-0.699 3.265,-4.655 3.818,-0.892 1.03,-4.148 z"
       style="fill:#ffffff;fill-opacity:1;fill-rule:nonzero;stroke:none"
       transform="matrix(0.07713627,0,0,-0.07713627,97.405411,190.0846)"
       clip-path="url(#clipPath68)" />
    <path
       id="path69-4"
       d="m 0,0 -5.961,10.854 -4.995,5.123 -3.725,5.501 10.063,-5.409 -1.903,-1.996 2.327,-2.897 z"
       style="fill:#ffffff;fill-opacity:1;fill-rule:nonzero;stroke:none"
       transform="matrix(0.07713627,0,0,-0.07713627,96.03956,190.96508)"
       clip-path="url(#clipPath70)" />
    <path
       id="path71"
       d="m 0,0 -2.704,6.752 -3.909,4.617 -4.664,6.715 9.318,-7.552 z"
       style="fill:#ffffff;fill-opacity:1;fill-rule:nonzero;stroke:none"
       transform="matrix(0.07713627,0,0,-0.07713627,96.04664,190.30385)"
       clip-path="url(#clipPath72)" />
    <path
       id="path73"
       d="M 0,0 -4.939,1.867 -5.501,-2.98 -7.083,6.797 Z"
       style="fill:#ffffff;fill-opacity:1;fill-rule:nonzero;stroke:none"
       transform="matrix(0.07713627,0,0,-0.07713627,93.97978,189.05648)"
       clip-path="url(#clipPath74)" />
    <path
       id="path75"
       d="m 0,0 -9.41,2.989 -5.086,2.934 -1.205,-9.971 -0.562,10.854 0.929,2.475 6.715,-3.265 z"
       style="fill:#ffffff;fill-opacity:1;fill-rule:nonzero;stroke:none"
       transform="matrix(0.07713627,0,0,-0.07713627,95.87775,191.1311)"
       clip-path="url(#clipPath76)" />
    <path
       id="path77"
       d="m 0,0 2.115,-10.173 -11.912,23.309 -4.562,8.509 -5.169,6.061 -1.114,6.898 2.448,-3.108 3.118,-6.788 5.114,-4.784 -4.167,7.561 -0.837,3.505 4.948,-2.723 L -1.169,15.076 3.78,4.397 4.001,-0.496 -4.397,8.96 Z"
       style="fill:#ffffff;fill-opacity:1;fill-rule:nonzero;stroke:none"
       transform="matrix(0.07713627,0,0,-0.07713627,92.926162,192.43813)"
       clip-path="url(#clipPath78)" />
    <path
       id="path79"
       d="m 0,0 -2.907,5.234 -3.201,3.081 5.353,-2.032 8.601,-8.546 8.205,-9.943 -8.545,4.939 -6.688,3.432 -8.38,5.408 z M 5.583,3.67 9.823,2.042 11.222,-2.907 3.78,3.321 -1.858,9.603 Z m 69.512,-162.443 17.927,-6.264 20.632,-13.963 -11.295,11.995 -20.025,8.453 7.58,0.441 -11.268,6.927 -10.891,5.491 -15.316,15.159 -5.509,6.291 -8.003,4.995 -0.837,5.087 -7.046,5.648 -4.756,0.883 -4.7,4.986 -1.316,1.397 -15.397,4.324 -14.92,4.645 -6.485,2.336 -9.52,4.416 -7.175,8.26 17.22,-11.222 -7.01,16.373 4.296,-5.896 -0.616,4.829 6.282,-4.838 -1.251,5.675 9.75,-9.502 1.527,0.745 -4.691,14.368 -12.197,2.603 -5.611,9.898 -3.597,2.373 -0.294,2.327 -8.665,5.648 -1.996,3.835 -8.104,11.314 3.698,1.343 4.425,5.666 4.24,-5.289 5.915,-7.091 1.361,2.502 12.62,-12.529 6.135,-10.615 2.438,-5.271 14.552,-0.358 8.444,-8.757 -3.201,6.843 -3.072,3.321 7.469,-1.333 -4.047,5.362 12.767,-7.515 2.87,-0.313 6.723,-2.667 3.156,-6.016 3.569,-0.763 -3.734,8.168 -9.309,9.741 -18.812,19.822 -6.503,8.131 14.203,-13.355 -0.046,3.219 -3.872,5.261 8.756,-6.245 -2.125,4.084 5.234,-1.361 3.698,-0.056 -6.209,4.673 -4.71,8.996 -4.921,6.706 9.539,-4.149 3.578,0.019 -1.057,7.101 3.228,-1.178 -1.49,4.48 -8.04,5.933 -5.142,2.539 -1.682,6.117 -4.177,0.036 -3.072,10.312 -6.724,7.947 -5.307,2.695 -1.417,2.171 -4.148,1.601 -5.888,6.484 -5.316,6.872 -4.176,-9.695 3.155,-9.769 2.548,-4.461 -1.601,-3.266 1.021,-6.273 0.874,-6.761 -1.61,-5.427 2.723,1.941 0.543,-3.881 1.637,-0.727 0.442,2.088 0.101,3.155 6.19,1.564 -4.323,-6.522 -1.168,-5.307 -0.883,-4.314 -3.688,-4.48 -3.247,0.174 -7.065,-0.358 -1.49,-1.665 -2.171,1.858 -4.075,0.515 -1.802,2.741 -7.893,-7.92 -0.607,-2.171 -4.038,-0.386 -9.75,-7.266 -6.172,0.367 -7.7,-4.047 -3.614,-1.223 3.486,-7.478 5.215,-8.859 7.147,-5.758 7.957,-1.619 6.117,-1.14 9.263,-7.432 5.767,-8.049 -7.957,6.871 -0.092,-2.934 -5.022,6.853 -7.469,3.293 0.285,-4.921 4.425,1.103 -1.371,-12.509 -5.859,-6.246 -6.044,-8.002 -7.524,-6.247 8.656,4.315 5.629,6.632 1.417,-2.079 2.815,3.311 0.937,-5.298 2.806,-5.859 -3.449,-8.049 -6.816,-6.209 -9.686,-3.091 -6.678,-3.836 -7.828,0.038 -8.067,-2.714 -3.762,-4.967 13.19,4.581 3.478,-1.895 6.806,3.992 7.442,-1.398 3.523,3.293 5.372,-7.01 0.754,3.717 4.047,7.625 9.741,-13.053 2.833,-13.659 3.174,-7.754 0.221,-5.307 15.591,-6.586 2.759,2.171 8.96,-1.04 8.655,1.417 -10.008,14.588 -11.59,9.014 9.64,-2.198 4.618,-5.5 7.294,-0.516 6.531,-5.997 -1.509,-1.15 1.031,-2.695 9.998,-6.779 -5.077,8.711 -7.377,9.815 -7.58,8.407 -12.639,7.818 -9.759,8.472 -12.344,14.212 -7.101,10.191 2.355,0.028 9.759,-10.082 -11.194,16.898 -3.477,7.101 5.739,-4.25 8.849,-3.146 4.195,-4.645 6.613,-4.167 8.371,-8.039 5.648,4.958 6.162,-3.542 5.841,-7.533 2.493,-1.361 0.157,1.986 12.28,-12.472 14.91,-12.252 -12.657,12.923 -8.104,8.922 -0.589,2.99 4.793,-2.934 5.142,-7.102 6.503,-6.686 6.679,-7.221 -6.559,9.906 -5.022,6.578 11.948,-12.557 -5.519,9.907 -6.889,7.929 8.582,-6.108 10.118,-7.763 7.597,-8.241 7.102,-7.029 7.735,-9.179 -14.146,6.264 3.154,-6.614 -6.107,4.425 -10.551,6.917 5.703,-8.923 7.608,-7.717 -4.461,0.156 11.497,-6.448 8.269,-3.826 -7.616,7.34 -5.739,4.764 11.921,-5.831 6.925,-4.01 14.204,-7.672 16.85,-16.143 -11.396,14.469 z"
       style="fill:#f9f9f9;fill-opacity:1;fill-rule:nonzero;stroke:none"
       transform="matrix(0.07713627,0,0,-0.07713627,83.354635,185.77989)"
       clip-path="url(#clipPath80)" />
    <path
       id="path81"
       d="m 0,0 -8.545,4.939 -6.687,3.432 -8.38,5.408 7.561,-1.573 -2.907,5.234 -3.201,3.081 5.353,-2.032 8.601,-8.546 z"
       style="fill:#313b52;fill-opacity:1;fill-rule:nonzero;stroke:none"
       transform="matrix(0.07713627,0,0,-0.07713627,84.592729,186.72141)"
       clip-path="url(#clipPath82)" />
    <path
       id="path83"
       d="M 0,0 -7.441,6.228 -13.08,12.51 -5.639,6.577 -1.398,4.949 Z"
       style="fill:#313b52;fill-opacity:1;fill-rule:nonzero;stroke:none"
       transform="matrix(0.07713627,0,0,-0.07713627,84.22023,186.0041)"
       clip-path="url(#clipPath84)" />
    <path
       id="path85"
       d="m 0,0 -5.206,2.907 3.008,-4.259 -8.242,7.819 1.978,-4.305 -3.385,2.216 1.527,10.349 4.93,-6.154 3.652,1.656 7.837,-7.782 z"
       style="fill:#ffffff;fill-opacity:1;fill-rule:nonzero;stroke:none"
       transform="matrix(0.07713627,0,0,-0.07713627,82.502446,182.61824)"
       clip-path="url(#clipPath86)" />
    <path
       id="path87"
       d="m 0,0 -6.43,0.027 4.379,1.996 z"
       style="fill:#ffffff;fill-opacity:1;fill-rule:nonzero;stroke:none"
       transform="matrix(0.07713627,0,0,-0.07713627,83.145299,182.69131)"
       clip-path="url(#clipPath88)" />
    <path
       id="path89"
       d="m 0,0 -0.617,-2.024 -5.05,2.723 z"
       style="fill:#ffffff;fill-opacity:1;fill-rule:nonzero;stroke:none"
       transform="matrix(0.07713627,0,0,-0.07713627,82.878525,181.67313)"
       clip-path="url(#clipPath90)" />
    <path
       id="path91"
       d="m 0,0 -6.853,2.686 -5.574,1.665 -2.695,2.346 7.147,-1.573 1.343,0.837 4.617,-1.545 z"
       style="fill:#ffffff;fill-opacity:1;fill-rule:nonzero;stroke:none"
       transform="matrix(0.07713627,0,0,-0.07713627,84.000277,184.00892)"
       clip-path="url(#clipPath92)" />
    <path
       id="path93"
       d="M 0,0 -3.624,-4.37 -3.753,0.653 Z"
       style="fill:#ffffff;fill-opacity:1;fill-rule:nonzero;stroke:none"
       transform="matrix(0.07713627,0,0,-0.07713627,84.838232,181.97042)"
       clip-path="url(#clipPath94)" />
    <path
       id="path95"
       d="m 0,0 -5.74,-3.403 1.306,3.127 z"
       style="fill:#ffffff;fill-opacity:1;fill-rule:nonzero;stroke:none"
       transform="matrix(0.07713627,0,0,-0.07713627,85.557012,181.53265)"
       clip-path="url(#clipPath96)" />
    <path
       id="path97"
       d="M 0,0 -4.507,-3.817 -6.88,-0.276 Z"
       style="fill:#ffffff;fill-opacity:1;fill-rule:nonzero;stroke:none"
       transform="matrix(0.07713627,0,0,-0.07713627,84.755896,181.5433)"
       clip-path="url(#clipPath98)" />
    <path
       id="path99"
       d="m 0,0 0.386,-3.091 -6.724,9.198 -2.622,6.725 2.098,0.478 -2.621,4.479 7.772,-6.769 8.582,0.901 3.237,-3.762 -7.385,0.947 6.963,-6.862 6.052,-9.198 z"
       style="fill:#ffffff;fill-opacity:1;fill-rule:nonzero;stroke:none"
       transform="matrix(0.07713627,0,0,-0.07713627,84.480643,193.02984)"
       clip-path="url(#clipPath100)" />
    <path
       id="path101"
       d="m 0,0 -10.651,6.521 -2.024,6.301 4.931,-5.216 1.149,2.53 -3.909,9.42 4.857,-7.387 1.37,-5.868 z m 24.698,2.897 -9.704,5.427 -7.101,7.46 -5.933,8.049 -3.689,-1.417 -3.109,6.89 -6.071,4.065 -3.78,4.02 -7.598,1.196 -4.783,2.29 -3.836,3.394 -4.157,0.433 0.431,-1.96 -5.978,0.718 -4.544,3.918 3.826,2.778 6.025,-1.573 3.21,-3.164 -1.388,8.61 -12.198,11.865 -6.65,6.835 -5.832,8.04 -1.297,-3.496 -4.921,-3.008 -2.3,1.15 -5.592,-6.273 0.045,-1.858 -5.886,-0.534 1.342,-6.163 5.695,-5.261 11.525,-8.233 -1.959,5.261 7.985,-7.882 -3.193,9.125 8.767,-6.881 -4.563,-0.947 3.118,-7.966 -5.794,1.527 -2.825,3.108 -0.579,-2.823 -3.551,-5.216 7.092,-14.772 7.975,-8.187 4.131,0.433 1.443,2.971 3.698,-3.762 7.019,-3.772 2.391,-10.569 7.607,-5.362 -2.171,6.954 13.182,-9.641 -14.92,23.908 11.949,-8.84 0.294,-2.171 5.353,-4.13 9.567,-2.529 5.427,-5.216 4.498,-2.686 L 2.318,6.586 -2.677,14.119 6.007,7.312 6.08,11.801 13.476,5.5 l -0.221,-7.533 7.534,-11.011 3.477,8.767 -1.306,4.423 z"
       style="fill:#f9f9f9;fill-opacity:1;fill-rule:nonzero;stroke:none"
       transform="matrix(0.07713627,0,0,-0.07713627,91.436086,194.43041)"
       clip-path="url(#clipPath102)" />
    <path
       id="path103"
       d="m 0,0 -10.651,6.521 -2.024,6.301 4.931,-5.216 1.149,2.53 -3.909,9.42 4.857,-7.387 1.37,-5.868 z"
       style="fill:#f9f9f9;fill-opacity:1;fill-rule:nonzero;stroke:none"
       transform="matrix(0.07713627,0,0,-0.07713627,91.436086,194.43041)"
       clip-path="url(#clipPath104)" />
    <path
       id="path105"
       d="m 0,0 -3.982,5.556 -1.298,-6.513 -3.09,6.375 -3.293,2.061 -10.155,20.447 -1.095,9.327 7.064,-10.293 v -3.495 l 4.867,-9.604 -0.755,8.022 6.246,-12.418 -0.957,9.539 4.939,-9.943 z"
       style="fill:#ffffff;fill-opacity:1;fill-rule:nonzero;stroke:none"
       transform="matrix(0.07713627,0,0,-0.07713627,95.237768,197.95962)"
       clip-path="url(#clipPath106)" />
    <path
       id="path107"
       d="m 0,0 -4.737,3.78 -5.28,5.832 -3.91,5.069 -4.525,1.719 -3.155,5.216 -8.094,6.862 -4.6,1.297 -3.228,4.599 v 10.431 l -8.214,20.007 -0.534,11.884 -1.876,-4.701 -2.696,10.68 3.358,0.331 -5.298,6.513 -2.687,3.899 9.199,-4.636 5.188,-7.625 3.909,-7.129 4.728,-2.953 10.431,-2.952 3.082,1.784 9.539,-8.02 -3.22,-1.582 -7.341,6.107 -0.616,-3.983 -6.181,4.535 -3.569,-2.889 -4.94,6.725 -0.202,-10.155 -3.219,2.75 2.401,-8.03 7.202,-16.391 -6.384,8.434 5.28,-13.172 5.215,-4.737 10.091,-8.775 7.479,-9.199 z"
       style="fill:#ffffff;fill-opacity:1;fill-rule:nonzero;stroke:none"
       transform="matrix(0.07713627,0,0,-0.07713627,97.423112,198.62658)"
       clip-path="url(#clipPath108)" />
    <path
       id="path109"
       d="m 0,0 -0.119,-4.553 -8.978,-1.72 -9.437,6.034 2.124,6.852 4.949,-3.449 -0.11,3.679 4.259,-0.864 z"
       style="fill:#ffffff;fill-opacity:1;fill-rule:nonzero;stroke:none"
       transform="matrix(0.07713627,0,0,-0.07713627,86.912171,187.66863)"
       clip-path="url(#clipPath110)" />
    <path
       id="path111"
       d="M 0,0 0.579,2.76 -1.546,8.398 3.458,3.22 7.598,2.245 Z"
       style="fill:#ffffff;fill-opacity:1;fill-rule:nonzero;stroke:none"
       transform="matrix(0.07713627,0,0,-0.07713627,87.497543,187.56223)"
       clip-path="url(#clipPath112)" />
    <path
       id="path113"
       d="M 0,0 1.784,-6.163 -2.935,0.8 -4.14,5.409 4.148,-2.769 Z"
       style="fill:#ffffff;fill-opacity:1;fill-rule:nonzero;stroke:none"
       transform="matrix(0.07713627,0,0,-0.07713627,88.252491,185.60889)"
       clip-path="url(#clipPath114)"
       inkscape:label="path113" />
    <path
       id="path115"
       d="m 0,0 3.357,-6.973 -6.217,4.627 -2.088,8.693 -4.885,10.836 -6.024,6.981 9.704,-5.832 2.658,7.672 3.109,-14.396 -3.357,1.334 L 3.863,1.775 0.948,9.64 12.17,-7.23 Z"
       style="fill:#ffffff;fill-opacity:1;fill-rule:nonzero;stroke:none"
       transform="matrix(0.07713627,0,0,-0.07713627,97.178295,196.75768)"
       clip-path="url(#clipPath116)"
       inkscape:label="path115" />
    <path
       id="path117"
       d="m 0,0 1.407,-17.257 -9.106,5.17 -5.878,9.631 -1.655,-2.714 -5.612,0.608 -5.601,7.625 -7.976,15.941 8.757,11.47 -3.762,-1.224 -3.762,6.743 -9.024,5.344 8.059,0.966 -5.345,15.417 6.484,-6.394 6.743,-12.435 8.583,1.13 -5.079,-5.601 1.141,-4.296 5.428,6.66 -2.19,-8.407 L -21.285,17.78 1.582,15.849 -6.476,7.708 -5.428,-4.471 Z"
       style="fill:#f2f2f2;fill-opacity:1;fill-rule:nonzero;stroke:none"
       transform="matrix(0.07713627,0,0,-0.07713627,99.995879,195.9928)"
       clip-path="url(#clipPath118)" />
  </g>
  <g
     id="layer2"
     transform="translate(-27.926898,-253.08762)"
     style="display:inline">
    <path
       id="path24"
       d="M 0,0 C 0,2.184 4.069,4.108 10.285,5.278 3.021,4.168 -1.802,2.22 -1.802,0 c 0,-2.219 4.821,-4.167 12.084,-5.277 C 4.068,-4.107 0,-2.182 0,0"
       style="fill:#99ff55;fill-opacity:1;fill-rule:nonzero;stroke:none"
       transform="matrix(0.31813316,0,0,-0.31813316,37.596072,294.48095)"
       clip-path="url(#clipPath25)" />
    <path
       id="path26"
       d="m 0,0 c 6.211,-1.169 10.279,-3.094 10.279,-5.277 0,-2.182 -4.068,-4.107 -10.281,-5.277 7.262,1.11 12.083,3.057 12.083,5.277 C 12.081,-3.058 7.26,-1.11 0,0"
       style="fill:#99ff55;fill-opacity:1;fill-rule:nonzero;stroke:none"
       transform="matrix(0.31813316,0,0,-0.31813316,49.764665,292.80207)"
       clip-path="url(#clipPath27)" />
    <path
       id="path28"
       d="M 0,0 C 0,1.641 2.706,3.103 6.934,4.062 1.405,3.177 -2.228,1.689 -2.228,0 c 0,-1.688 3.635,-3.176 9.165,-4.062 C 2.708,-3.102 0,-1.64 0,0"
       style="fill:#99ff55;fill-opacity:1;fill-rule:nonzero;stroke:none"
       transform="matrix(0.31813316,0,0,-0.31813316,39.35452,294.4808)"
       clip-path="url(#clipPath29)" />
    <path
       id="path30"
       d="M 0,0 C 0,1.689 -3.636,3.177 -9.165,4.062 -4.935,3.103 -2.229,1.641 -2.229,0 c 0,-1.64 -2.706,-3.103 -6.936,-4.062 C -3.636,-3.177 0,-1.688 0,0"
       style="fill:#99ff55;fill-opacity:1;fill-rule:nonzero;stroke:none"
       transform="matrix(0.31813316,0,0,-0.31813316,51.985077,294.48063)"
       clip-path="url(#clipPath31)" />
    <path
       id="path32"
       d="m 0,0 c -6.802,0 -12.317,-1.69 -12.317,-3.775 0,-2.085 5.515,-3.775 12.317,-3.775 6.802,0 12.316,1.69 12.316,3.775 C 12.316,-1.69 6.802,0 0,0"
       style="fill:#fff6d5;fill-opacity:1;fill-rule:nonzero;stroke:none"
       transform="matrix(0.31813316,0,0,-0.31813316,45.315475,293.27955)"
       clip-path="url(#clipPath33)" />
    <path
       id="path34"
       d="m 0,0 c -16.667,0 -30.179,4.141 -30.179,9.25 0,5.109 13.512,9.25 30.179,9.25 16.668,0 30.18,-4.141 30.18,-9.25 C 30.18,4.141 16.668,0 0,0 m -69.92,9.976 c 0,0 11.573,-6.695 26.712,0 0,0 -12.417,-10.005 -26.712,0 m 58.76,-22.661 c 10.863,0 19.671,-2.7 19.671,-6.03 0,-3.33 -8.808,-6.029 -19.671,-6.029 -10.863,0 -19.671,2.699 -19.671,6.029 0,3.33 8.808,6.03 19.671,6.03 m -91.443,-12.059 c -10.863,0 -19.669,2.699 -19.669,6.029 0,3.33 8.806,6.03 19.669,6.03 10.865,0 19.671,-2.7 19.671,-6.03 0,-3.33 -8.806,-6.029 -19.671,-6.029 M -113.761,0 c -16.667,0 -30.179,4.141 -30.179,9.25 0,5.109 13.512,9.25 30.179,9.25 16.667,0 30.18,-4.141 30.18,-9.25 0,-5.109 -13.513,-9.25 -30.18,-9.25 M 0,32.598 c -17.501,0 -31.69,-4.349 -31.69,-9.714 V 21.14 C -34.631,17.737 -43.046,9.653 -56.88,9.272 -70.358,9.643 -78.854,17.324 -82.07,20.866 v 2.018 c 0,5.365 -14.19,9.714 -31.691,9.714 -17.502,0 -31.691,-4.349 -31.691,-9.714 V 8.26 h 0.005 c 0.094,-5.34 14.244,-9.659 31.686,-9.659 15.905,0 29.065,3.591 31.335,8.273 3.087,-1.652 11.695,-6.504 13.797,-10.315 1.647,-2.986 -6.978,-4.851 -13.408,-5.808 -0.956,3.225 -9.795,5.752 -20.566,5.752 -11.408,0 -20.655,-2.835 -20.655,-6.332 v -9.531 h 0.002 c 0.064,-3.48 9.285,-6.296 20.653,-6.296 11.369,0 20.59,2.816 20.654,6.296 h 0.002 v 3.597 c 5.431,1.977 10.259,3.188 14.193,3.927 -0.239,-0.915 -0.381,-1.87 -0.381,-2.859 0,-6.215 5.039,-11.253 11.255,-11.253 6.215,0 11.253,5.038 11.253,11.253 0,0.989 -0.141,1.944 -0.38,2.859 3.934,-0.739 8.76,-1.949 14.192,-3.926 v -3.598 h 0.002 c 0.063,-3.48 9.285,-6.296 20.653,-6.296 11.368,0 20.59,2.816 20.653,6.296 h 0.002 v 9.531 c 0,3.497 -9.247,6.332 -20.655,6.332 -10.77,0 -19.61,-2.527 -20.566,-5.752 -6.429,0.957 -15.052,2.822 -13.405,5.808 2.152,3.902 10.93,8.896 13.749,10.427 C -29.27,2.25 -16.031,-1.399 0,-1.399 c 17.443,0 31.592,4.319 31.687,9.659 h 0.003 v 14.624 c 0,5.365 -14.188,9.714 -31.69,9.714"
       style="fill:url(#radialGradient2);fill-opacity:1;fill-rule:nonzero;stroke:none"
       transform="matrix(0.31813316,0,0,-0.31813316,81.506528,297.39851)"
       clip-path="url(#clipPath35)" />
    <path
       id="path36"
       d="M 0,0 C 0,2.184 4.071,4.108 10.286,5.278 3.022,4.168 -1.801,2.22 -1.801,0 c 0,-2.219 4.822,-4.167 12.084,-5.277 C 4.07,-4.107 0,-2.182 0,0"
       style="fill:#99ff55;fill-opacity:1;fill-rule:nonzero;stroke:none"
       transform="matrix(0.31813316,0,0,-0.31813316,73.786841,294.48095)"
       clip-path="url(#clipPath37)" />
    <path
       id="path38"
       d="m 0,0 c 6.211,-1.17 10.28,-3.094 10.28,-5.277 0,-2.182 -4.069,-4.107 -10.282,-5.277 7.262,1.11 12.083,3.057 12.083,5.277 C 12.081,-3.058 7.26,-1.11 0,0"
       style="fill:#99ff55;fill-opacity:1;fill-rule:nonzero;stroke:none"
       transform="matrix(0.31813316,0,0,-0.31813316,85.955751,292.80207)"
       clip-path="url(#clipPath39)" />
    <path
       id="path40"
       d="M 0,0 C 0,1.641 2.705,3.103 6.933,4.061 1.403,3.177 -2.229,1.689 -2.229,0 c 0,-1.688 3.635,-3.176 9.166,-4.062 C 2.708,-3.102 0,-1.64 0,0"
       style="fill:#99ff55;fill-opacity:1;fill-rule:nonzero;stroke:none"
       transform="matrix(0.31813316,0,0,-0.31813316,75.545889,294.4808)"
       clip-path="url(#clipPath41)" />
    <path
       id="path42"
       d="M 0,0 C 0,1.689 -3.635,3.177 -9.166,4.062 -4.937,3.103 -2.228,1.641 -2.228,0 c 0,-1.64 -2.709,-3.103 -6.938,-4.062 C -3.635,-3.177 0,-1.688 0,0"
       style="fill:#99ff55;fill-opacity:1;fill-rule:nonzero;stroke:none"
       transform="matrix(0.31813316,0,0,-0.31813316,88.176158,294.48063)"
       clip-path="url(#clipPath43)" />
    <path
       id="path44"
       d="m 0,0 c -6.802,0 -12.316,-1.69 -12.316,-3.775 0,-2.085 5.514,-3.775 12.316,-3.775 6.803,0 12.317,1.69 12.317,3.775 C 12.317,-1.69 6.803,0 0,0"
       style="fill:#fff6d5;fill-opacity:1;fill-rule:nonzero;stroke:none"
       transform="matrix(0.31813316,0,0,-0.31813316,81.506528,293.27955)"
       clip-path="url(#clipPath45)" />
    <path
       id="path46"
       d="M 0,0 C 0,1.423 2.653,2.677 6.703,3.44 1.969,2.717 -1.174,1.447 -1.174,0 c 0,-1.447 3.143,-2.717 7.875,-3.44 C 2.652,-2.678 0,-1.423 0,0"
       style="fill:#ddff55;fill-opacity:1;fill-rule:nonzero;stroke:none"
       transform="matrix(0.31813316,0,0,-0.31813316,43.833868,303.36863)"
       clip-path="url(#clipPath47)" />
    <path
       id="path48"
       d="m 0,0 c 4.049,-0.763 6.701,-2.017 6.701,-3.44 0,-1.423 -2.652,-2.678 -6.702,-3.44 4.732,0.723 7.875,1.993 7.875,3.44 C 7.874,-1.993 4.731,-0.724 0,0"
       style="fill:#ddff55;fill-opacity:1;fill-rule:nonzero;stroke:none"
       transform="matrix(0.31813316,0,0,-0.31813316,51.765119,302.27428)"
       clip-path="url(#clipPath49)" />
    <path
       id="path50"
       d="M 0,0 C 0,1.069 1.764,2.022 4.519,2.647 0.915,2.071 -1.452,1.101 -1.452,0 c 0,-1.1 2.368,-2.07 5.973,-2.647 C 1.765,-2.021 0,-1.069 0,0"
       style="fill:#ddff55;fill-opacity:1;fill-rule:nonzero;stroke:none"
       transform="matrix(0.31813316,0,0,-0.31813316,44.980262,303.36863)"
       clip-path="url(#clipPath51)" />
    <path
       id="path52"
       d="M 0,0 C 0,1.101 -2.369,2.071 -5.974,2.647 -3.217,2.022 -1.452,1.069 -1.452,0 c 0,-1.07 -1.765,-2.022 -4.522,-2.648 C -2.369,-2.071 0,-1.101 0,0"
       style="fill:#ddff55;fill-opacity:1;fill-rule:nonzero;stroke:none"
       transform="matrix(0.31813316,0,0,-0.31813316,53.212564,303.36847)"
       clip-path="url(#clipPath53)" />
    <path
       id="path54"
       d="m 0,0 c -4.434,0 -8.027,-1.101 -8.027,-2.46 0,-1.359 3.593,-2.46 8.027,-2.461 4.434,0 8.028,1.102 8.028,2.461 C 8.028,-1.101 4.434,0 0,0"
       style="fill:#fff6d5;fill-opacity:1;fill-rule:nonzero;stroke:none"
       transform="matrix(0.31813316,0,0,-0.31813316,48.86527,302.58574)"
       clip-path="url(#clipPath55)" />
    <path
       id="path56"
       d="m 0,0 c -4.05,0.763 -6.701,2.018 -6.701,3.44 0,1.424 2.652,2.678 6.703,3.441 C -4.732,6.158 -7.876,4.888 -7.876,3.44 -7.876,1.994 -4.732,0.724 0,0"
       style="fill:#e5ff80;fill-opacity:1;fill-rule:nonzero;stroke:none"
       transform="matrix(0.31813316,0,0,-0.31813316,75.056565,304.46314)"
       clip-path="url(#clipPath57)" />
    <path
       id="path58"
       d="m 0,0 c 0,-1.423 -2.651,-2.678 -6.699,-3.44 4.732,0.723 7.874,1.993 7.874,3.44 0,1.447 -3.142,2.716 -7.873,3.44 C -2.651,2.677 0,1.423 0,0"
       style="fill:#e5ff80;fill-opacity:1;fill-rule:nonzero;stroke:none"
       transform="matrix(0.31813316,0,0,-0.31813316,82.987223,303.36863)"
       clip-path="url(#clipPath59)" />
    <path
       id="path60"
       d="M 0,0 C 0,-1.1 2.368,-2.07 5.973,-2.647 3.217,-2.021 1.452,-1.069 1.452,0 1.452,1.069 3.216,2.022 5.971,2.647 2.366,2.071 0,1.101 0,0"
       style="fill:#e5ff80;fill-opacity:1;fill-rule:nonzero;stroke:none"
       transform="matrix(0.31813316,0,0,-0.31813316,73.60913,303.36863)"
       clip-path="url(#clipPath61)" />
    <path
       id="path62"
       d="m 0,0 c 0,-1.07 -1.765,-2.022 -4.522,-2.648 3.606,0.577 5.975,1.547 5.975,2.648 0,1.101 -2.369,2.071 -5.975,2.647 C -1.765,2.022 0,1.069 0,0"
       style="fill:#e5ff80;fill-opacity:1;fill-rule:nonzero;stroke:none"
       transform="matrix(0.31813316,0,0,-0.31813316,81.841141,303.36847)"
       clip-path="url(#clipPath63)" />
    <path
       id="path64"
       d="M 0,0 C 4.434,0 8.028,1.102 8.028,2.461 8.028,3.821 4.434,4.921 0,4.921 -4.435,4.922 -8.028,3.821 -8.028,2.461 -8.028,1.102 -4.435,0 0,0"
       style="fill:#fff6d5;fill-opacity:1;fill-rule:nonzero;stroke:none"
       transform="matrix(0.31813316,0,0,-0.31813316,77.956137,304.1514)"
       clip-path="url(#clipPath65)" />
    <path
       id="path66"
       d="m 0,0 c 0,-4.581 -3.714,-8.294 -8.294,-8.294 -4.58,0 -8.293,3.713 -8.293,8.294 0,4.581 3.713,8.293 8.293,8.293 C -3.714,8.293 0,4.581 0,0"
       style="fill:#ffffff;fill-opacity:1;fill-rule:nonzero;stroke:#15174b;stroke-width:1.62824919;stroke-dasharray:none;stroke-opacity:0.83137298"
       transform="matrix(0.31813316,0,0,-0.31813316,66.036066,302.03725)"
       clip-path="url(#clipPath67)" />
    <path
       id="path68"
       d="m 0,0 c -1.456,0 -2.636,1.18 -2.636,2.636 0,0.87 0.427,1.635 1.077,2.115 -0.373,0.085 -0.76,0.135 -1.16,0.135 -2.858,0 -5.174,-2.316 -5.174,-5.174 0,-2.858 2.316,-5.174 5.174,-5.174 2.859,0 5.175,2.316 5.175,5.174 0,0.532 -0.08,1.044 -0.228,1.527 C 1.761,0.497 0.94,0 0,0"
       style="fill:#6cb4b5;fill-opacity:1;fill-rule:nonzero;stroke:#15174b;stroke-opacity:0.83137298"
       transform="matrix(0.31813316,0,0,-0.31813316,64.262408,301.94576)"
       clip-path="url(#clipPath69)" />
  </g>
  <g
     id="layer1"
     transform="translate(-27.926898,-253.08762)">
    <path
       style="font-size:11.932px;line-height:1;font-family:Audiowide;-inkscape-font-specification:Audiowide;text-align:center;letter-spacing:-0.0596599px;word-spacing:0px;text-anchor:middle;fill:#edf4fa;stroke:url(#pattern10);stroke-width:0.1;stroke-linecap:round;stroke-linejoin:bevel;stroke-opacity:0.83137298;stroke-dasharray:none"
       d="m 39.015624,301.5671 q 0,0.51853 -0.128176,0.92636 -0.128176,0.40783 -0.34957,0.72245 -0.215568,0.30879 -0.501051,0.53018 -0.285482,0.22139 -0.600096,0.36705 -0.308787,0.13983 -0.629226,0.20391 -0.314613,0.0641 -0.59427,0.0641 l 3.163612,2.73248 h -2.342121 l -3.157786,-2.73248 h -1.089494 v -1.5148 h 3.425789 q 0.285483,-0.0233 0.51853,-0.11653 0.238873,-0.099 0.407832,-0.26217 0.174785,-0.16314 0.268004,-0.39036 0.09322,-0.23304 0.09322,-0.53018 v -0.95549 q 0,-0.12818 -0.03496,-0.19226 -0.02913,-0.0699 -0.08157,-0.0991 -0.04661,-0.035 -0.104871,-0.0408 -0.05244,-0.006 -0.09905,-0.006 h -4.998856 v 6.83993 H 30.66672 v -7.59151 q 0,-0.1573 0.05826,-0.29713 0.05826,-0.13983 0.157307,-0.2447 0.104871,-0.10487 0.244699,-0.16313 0.139828,-0.0583 0.302961,-0.0583 h 5.750432 q 0.506877,0 0.856447,0.18643 0.34957,0.18062 0.565139,0.46027 0.221394,0.27383 0.314613,0.59427 0.09905,0.32044 0.09905,0.6001 z m 8.003762,1.33419 q 0,0.31462 -0.110697,0.68167 -0.110697,0.36122 -0.361223,0.67583 -0.244699,0.30879 -0.646705,0.51853 -0.396179,0.20974 -0.967144,0.20974 H 42.201142 V 303.548 h 2.732475 q 0.308787,0 0.477746,-0.18644 0.168959,-0.19226 0.168959,-0.47192 0,-0.29713 -0.192264,-0.46609 -0.186437,-0.16896 -0.454441,-0.16896 h -2.732475 q -0.308787,0 -0.477746,0.19226 -0.168959,0.18644 -0.168959,0.4661 v 2.1149 q 0,0.30296 0.186437,0.47192 0.192264,0.16896 0.47192,0.16896 h 2.720823 v 1.44489 h -2.732475 q -0.314613,0 -0.681662,-0.1107 -0.361223,-0.1107 -0.675836,-0.3554 -0.308787,-0.25052 -0.518529,-0.6467 -0.209743,-0.40201 -0.209743,-0.97297 v -2.12656 q 0,-0.31461 0.110698,-0.67583 0.110697,-0.36705 0.355396,-0.67584 0.250526,-0.31461 0.646705,-0.52435 0.402006,-0.20974 0.972971,-0.20974 h 2.732475 q 0.314613,0 0.675836,0.11069 0.367048,0.1107 0.675836,0.36122 0.314613,0.2447 0.524355,0.64671 0.209742,0.39618 0.209742,0.96714 z m 7.415319,2.12656 q 0,0.31461 -0.110697,0.68166 -0.110697,0.36122 -0.361223,0.67584 -0.244699,0.30878 -0.646705,0.51852 -0.39618,0.20975 -0.967144,0.20975 h -2.732475 q -0.314613,0 -0.681662,-0.1107 -0.361223,-0.1107 -0.675836,-0.3554 -0.308787,-0.25052 -0.51853,-0.6467 -0.209742,-0.40201 -0.209742,-0.97297 0,-0.31462 0.110698,-0.68166 0.110697,-0.36705 0.355396,-0.67584 0.250525,-0.31461 0.646705,-0.52436 0.402006,-0.20974 0.972971,-0.20974 h 2.732475 v 1.44489 h -2.732475 q -0.308787,0 -0.477746,0.19227 -0.168959,0.18643 -0.168959,0.46609 0,0.29713 0.192263,0.46609 0.19809,0.16314 0.466094,0.16314 h 2.720823 q 0.308787,0 0.477746,-0.18644 0.168959,-0.18644 0.168959,-0.46609 v -2.11491 q 0,-0.29713 -0.186438,-0.47192 -0.180611,-0.17478 -0.460267,-0.17478 h -3.326745 v -1.43906 h 3.326745 q 0.314613,0 0.675835,0.11069 0.367049,0.1107 0.675836,0.36122 0.314614,0.2447 0.524356,0.64671 0.209742,0.39618 0.209742,0.96714 z m 4.001182,2.08577 h -0.675836 q -0.326266,0 -0.699141,-0.1107 -0.367049,-0.1107 -0.687488,-0.36122 -0.32044,-0.25635 -0.530182,-0.65836 -0.209742,-0.40783 -0.209742,-0.99628 v -6.8341 h 1.514805 v 6.8341 q 0,0.27966 0.174785,0.44862 0.174785,0.16313 0.436963,0.16313 h 0.675836 z m 6.413217,-4.78329 h -2.645082 v 4.78329 h -1.532284 v -4.78329 h -1.969246 v -1.5148 h 1.969246 v -2.05664 h 1.532284 v 2.05664 h 2.645082 z m 7.881414,5.38921 q 0,0.39035 -0.09905,0.69914 -0.09905,0.31461 -0.262178,0.54766 -0.163133,0.23887 -0.378701,0.40201 -0.215569,0.16895 -0.454442,0.27383 -0.233046,0.10487 -0.47192,0.15148 -0.238873,0.0524 -0.454441,0.0524 h -2.732475 v -1.5148 h 2.732475 q 0.302961,0 0.454441,-0.15731 0.151481,-0.15731 0.151481,-0.45444 v -6.90401 h 1.514805 z m -2.120727,-0.60592 h -2.732475 q -0.326265,0 -0.69914,-0.1107 -0.367049,-0.1107 -0.687488,-0.36122 -0.32044,-0.25635 -0.530182,-0.65836 -0.209742,-0.40783 -0.209742,-0.99628 v -4.17153 h 1.514804 v 4.17153 q 0,0.29714 0.157307,0.45445 0.157307,0.1573 0.466094,0.1573 h 2.720822 z m 9.081605,-4.78329 h -3.425789 v -1.5148 h 3.425789 z m 0,-2.73247 h -3.414137 q -0.308787,0 -0.466094,0.1573 -0.157306,0.15148 -0.157306,0.44862 v 6.90984 h -1.514805 v -6.90984 q 0,-0.39036 0.09905,-0.69914 0.09904,-0.30879 0.262178,-0.54184 0.168959,-0.23887 0.384527,-0.402 0.215568,-0.16896 0.448615,-0.27383 0.238873,-0.10487 0.477746,-0.15148 0.238873,-0.0524 0.454442,-0.0524 h 3.425789 z m 7.840628,5.3892 q 0,0.39036 -0.09905,0.70497 -0.09905,0.30879 -0.262178,0.54766 -0.163133,0.23305 -0.378701,0.40201 -0.215568,0.16313 -0.454442,0.268 -0.233046,0.10487 -0.471919,0.15731 -0.238874,0.0466 -0.454442,0.0466 h -2.732475 v -1.51481 h 2.732475 q 0.302961,0 0.454442,-0.1573 0.15148,-0.15731 0.15148,-0.45445 v -2.03916 q 0,-0.31461 -0.157307,-0.46609 -0.15148,-0.15148 -0.448615,-0.15148 h -2.720822 q -0.308787,0 -0.466094,0.15731 -0.157307,0.15148 -0.157307,0.44861 v 6.14661 H 80.55227 v -6.14661 q 0,-0.39035 0.09905,-0.69914 0.09905,-0.30879 0.262177,-0.54183 0.168959,-0.23888 0.384528,-0.40201 0.215568,-0.16896 0.448615,-0.27383 0.238873,-0.10487 0.477746,-0.15148 0.244699,-0.0524 0.454441,-0.0524 h 2.732475 q 0.390354,0 0.699141,0.099 0.308787,0.099 0.541834,0.26218 0.238873,0.16313 0.402006,0.3787 0.168959,0.21557 0.27383,0.45444 0.104871,0.23305 0.15148,0.47192 0.05244,0.23887 0.05244,0.45444 z m 8.749511,-4.17153 q -0.256351,0.79818 -0.600095,1.57306 -0.343744,0.77488 -0.79236,1.47985 -0.442789,0.69914 -0.996275,1.29924 -0.54766,0.59427 -1.21767,1.03123 -0.664184,0.43113 -1.450717,0.68166 -0.780707,0.2447 -1.695416,0.2447 -0.157306,0 -0.297135,-0.0583 -0.139828,-0.0583 -0.244699,-0.15731 -0.104871,-0.10487 -0.163133,-0.23887 -0.05826,-0.13983 -0.05826,-0.29714 v -5.55816 h 1.514804 v 4.73667 q 0.553487,0 1.060364,-0.23887 0.512703,-0.23887 0.967144,-0.62923 0.454442,-0.39618 0.838969,-0.89723 0.390353,-0.50105 0.693314,-1.0254 0.302961,-0.53019 0.512704,-1.03706 0.215568,-0.50688 0.320439,-0.90888 z"
       id="text1"
       aria-label="Realtyfpv" />
  </g>
</svg>
