<!-- icon666.com - MILLIONS OF FREE VECTOR ICONS --><svg version="1.1" id="Layer_1" xmlns="http://www.w3.org/2000/svg" xmlns:xlink="http://www.w3.org/1999/xlink" x="0px" y="0px" viewBox="0 0 512 512" style="enable-background:new 0 0 512 512;" xml:space="preserve"><g><g><circle cx="100.046" cy="120.644" r="100.046"></circle></g></g><g><g><path d="M100.046,256c-30.978,0-59.554-10.47-82.391-28.042v228.134c0,19.501,15.81,35.31,35.31,35.31h94.161 c19.501,0,35.31-15.81,35.31-35.31V227.958C159.6,245.53,131.024,256,100.046,256z M116.694,431.542 c-4.448,4.447-10.359,6.895-16.648,6.895c-12.979,0-23.539-10.56-23.539-23.54c0-12.979,10.558-23.538,23.534-23.538 c12.986,0,23.545,10.559,23.545,23.538C123.591,421.177,121.143,427.092,116.694,431.542z M129.471,338.391H70.621v-35.31h58.851 V338.391z"></path></g></g><g><g><path d="M476.69,208.92H288.368c-19.501,0-35.31,15.81-35.31,35.31h-35.31v153.012h35.31c0,19.501,15.81,35.31,35.31,35.31H476.69 c19.501,0,35.31-15.81,35.31-35.31V244.23C512,224.729,496.19,208.92,476.69,208.92z M347.218,391.356V250.115l94.161,70.621 L347.218,391.356z"></path></g></g></svg>