<!-- icon666.com - MILLIONS OF FREE VECTOR ICONS --><svg id="icons" enable-background="new 0 0 64 64" viewBox="0 0 64 64" xmlns="http://www.w3.org/2000/svg"><path d="m37.01 6.008h6v3h-6z" fill="#da4453" style="fill: rgb(116, 250, 228);"></path><path d="m21 6.008h6.01v3h-6.01z" fill="#da4453" style="fill: rgb(116, 250, 228);"></path><g fill="#ed5565"><path d="m37.01 9.008v5h-10v-5-3h10z" fill="#ed5565" style="fill: rgb(215, 100, 184);"></path><path d="m49.01 6.008v5h-6v-2-3h3z" fill="#ed5565" style="fill: rgb(215, 100, 184);"></path><path d="m21 9.008v2h-6v-5h3 3z" fill="#ed5565" style="fill: rgb(215, 100, 184);"></path></g><path d="m43 37.998h10v20h-10z" fill="#e6e9ed"></path><path d="m35 22.998v4h-6v-4h3z" fill="#ccd1d9"></path><path d="m39 26.998v31h-14v-31h4 6z" fill="#e6e9ed"></path><path d="m11 37.998h10v20h-10z" fill="#e6e9ed"></path><path d="m6 59.998c0-1.11.89-2 2-2h3 10 4 14 4 10 3c1.11 0 2 .89 2 2v2h-52z" fill="#545c66" style="fill: rgb(216, 116, 147);"></path><path d="m6 62.998c-.553 0-1-.447-1-1v-2c0-.553.447-1 1-1s1 .447 1 1v2c0 .553-.447 1-1 1z" fill="#000000"></path><path d="m6 60.998c-.553 0-1-.447-1-1 0-1.654 1.346-3 3-3 .553 0 1 .447 1 1s-.447 1-1 1c-.552 0-1 .448-1 1 0 .553-.447 1-1 1z" fill="#000000"></path><path d="m58 62.998c-.553 0-1-.447-1-1v-2c0-.553.447-1 1-1s1 .447 1 1v2c0 .553-.447 1-1 1z" fill="#000000"></path><path d="m58 60.998c-.553 0-1-.447-1-1 0-.552-.448-1-1-1-.553 0-1-.447-1-1s.447-1 1-1c1.654 0 3 1.346 3 3 0 .553-.447 1-1 1z" fill="#000000"></path><path d="m56 58.998h-48c-.553 0-1-.447-1-1s.447-1 1-1h48c.553 0 1 .447 1 1s-.447 1-1 1z" fill="#000000"></path><path d="m25 58.998c-.553 0-1-.447-1-1v-31c0-.553.447-1 1-1s1 .447 1 1v31c0 .553-.447 1-1 1z" fill="#000000"></path><path d="m39 58.998c-.553 0-1-.447-1-1v-31c0-.553.447-1 1-1s1 .447 1 1v31c0 .553-.447 1-1 1z" fill="#000000"></path><path d="m39 27.998h-14c-.553 0-1-.447-1-1s.447-1 1-1h14c.553 0 1 .447 1 1s-.447 1-1 1z" fill="#000000"></path><path d="m30 54.998c-.553 0-1-.447-1-1v-22c0-.553.447-1 1-1s1 .447 1 1v22c0 .553-.447 1-1 1z" fill="#000000"></path><path d="m34 54.998c-.553 0-1-.447-1-1v-22c0-.553.447-1 1-1s1 .447 1 1v22c0 .553-.447 1-1 1z" fill="#000000"></path><path d="m29 27.998c-.553 0-1-.447-1-1v-4c0-.553.447-1 1-1s1 .447 1 1v4c0 .553-.447 1-1 1z" fill="#000000"></path><path d="m35 23.998h-6c-.553 0-1-.447-1-1s.447-1 1-1h6c.553 0 1 .447 1 1s-.447 1-1 1z" fill="#000000"></path><path d="m35 27.998c-.553 0-1-.447-1-1v-4c0-.553.447-1 1-1s1 .447 1 1v4c0 .553-.447 1-1 1z" fill="#000000"></path><path d="m32 23.998c-.553 0-1-.447-1-1v-5c0-.553.447-1 1-1s1 .447 1 1v5c0 .553-.447 1-1 1z" fill="#000000"></path><path d="m43 58.998c-.553 0-1-.447-1-1v-20c0-.553.447-1 1-1s1 .447 1 1v20c0 .553-.447 1-1 1z" fill="#000000"></path><path d="m53 38.998h-10c-.553 0-1-.447-1-1s.447-1 1-1h10c.553 0 1 .447 1 1s-.447 1-1 1z" fill="#000000"></path><path d="m53 58.998c-.553 0-1-.447-1-1v-20c0-.553.447-1 1-1s1 .447 1 1v20c0 .553-.447 1-1 1z" fill="#000000"></path><path d="m50 42.998h-4c-.553 0-1-.447-1-1s.447-1 1-1h4c.553 0 1 .447 1 1s-.447 1-1 1z" fill="#000000"></path><path d="m50 46.998h-4c-.553 0-1-.447-1-1s.447-1 1-1h4c.553 0 1 .447 1 1s-.447 1-1 1z" fill="#000000"></path><path d="m50 50.998h-4c-.553 0-1-.447-1-1s.447-1 1-1h4c.553 0 1 .447 1 1s-.447 1-1 1z" fill="#000000"></path><path d="m50 54.998h-4c-.553 0-1-.447-1-1s.447-1 1-1h4c.553 0 1 .447 1 1s-.447 1-1 1z" fill="#000000"></path><path d="m11 58.998c-.553 0-1-.447-1-1v-20c0-.553.447-1 1-1s1 .447 1 1v20c0 .553-.447 1-1 1z" fill="#000000"></path><path d="m21 38.998h-10c-.553 0-1-.447-1-1s.447-1 1-1h10c.553 0 1 .447 1 1s-.447 1-1 1z" fill="#000000"></path><path d="m21 58.998c-.553 0-1-.447-1-1v-20c0-.553.447-1 1-1s1 .447 1 1v20c0 .553-.447 1-1 1z" fill="#000000"></path><path d="m18 42.998h-4c-.553 0-1-.447-1-1s.447-1 1-1h4c.553 0 1 .447 1 1s-.447 1-1 1z" fill="#000000"></path><path d="m18 46.998h-4c-.553 0-1-.447-1-1s.447-1 1-1h4c.553 0 1 .447 1 1s-.447 1-1 1z" fill="#000000"></path><path d="m18 50.998h-4c-.553 0-1-.447-1-1s.447-1 1-1h4c.553 0 1 .447 1 1s-.447 1-1 1z" fill="#000000"></path><path d="m18 54.998h-4c-.553 0-1-.447-1-1s.447-1 1-1h4c.553 0 1 .447 1 1s-.447 1-1 1z" fill="#000000"></path><path d="m63 62.998h-62c-.553 0-1-.447-1-1s.447-1 1-1h62c.553 0 1 .447 1 1s-.447 1-1 1z" fill="#000000"></path><path d="m37.01 15.006h-10.004c-.553 0-1-.447-1-1v-8.002c0-.553.447-1 1-1h10.004c.553 0 1 .447 1 1v8.002c0 .553-.447 1-1 1zm-9.004-2h8.004v-6.002h-8.004z" fill="#000000"></path><path d="m21.004 12.004h-6.002c-.553 0-1-.447-1-1v-5c0-.553.447-1 1-1h6.002c.553 0 1 .447 1 1v5c0 .553-.447 1-1 1zm-5.002-2h4.002v-3h-4.002z" fill="#000000"></path><path d="m49.015 12.004h-6.002c-.553 0-1-.447-1-1v-5c0-.553.447-1 1-1h6.002c.553 0 1 .447 1 1v5c0 .553-.448 1-1 1zm-5.002-2h4.002v-3h-4.002z" fill="#000000"></path><path d="m27.006 7.004h-6.002c-.553 0-1-.447-1-1s.447-1 1-1h6.002c.553 0 1 .447 1 1s-.447 1-1 1z" fill="#000000"></path><path d="m27.006 10.004h-6.002c-.553 0-1-.447-1-1s.447-1 1-1h6.002c.553 0 1 .447 1 1s-.447 1-1 1z" fill="#000000"></path><path d="m43.013 10.004h-6.003c-.553 0-1-.447-1-1s.447-1 1-1h6.003c.553 0 1 .447 1 1s-.448 1-1 1z" fill="#000000"></path><path d="m43.013 7.004h-6.003c-.553 0-1-.447-1-1s.447-1 1-1h6.003c.553 0 1 .447 1 1s-.448 1-1 1z" fill="#000000"></path><path d="m17.999 7.004c-.553 0-1-.447-1-1v-4.002c0-.553.447-1 1-1s1 .447 1 1v4.002c0 .553-.447 1-1 1z" fill="#000000"></path><path d="m25.007 4.004h-14.009c-.553 0-1-.447-1-1s.447-1 1-1h14.009c.553 0 1 .447 1 1s-.447 1-1 1z" fill="#000000"></path><path d="m46.014 7.004c-.553 0-1-.447-1-1v-4.002c0-.553.447-1 1-1s1 .447 1 1v4.002c0 .553-.448 1-1 1z" fill="#000000"></path><path d="m53.018 4.004h-14.009c-.553 0-1-.447-1-1s.447-1 1-1h14.009c.553 0 1 .447 1 1s-.448 1-1 1z" fill="#000000"></path></svg>