<!-- icon666.com - MILLIONS OF FREE VECTOR ICONS --><svg id="Layer_3" viewBox="0 0 64 64" xmlns="http://www.w3.org/2000/svg" data-name="Layer 3"><path d="m7 12h24v46h-24z" fill="#e3e8f6"></path><g fill="#f8f7fe"><path d="m31 40h-22v12a4 4 0 0 0 4 4h18z"></path><path d="m11 14h20v-2h-22a2 2 0 0 0 2 2z"></path><path d="m11 28h20v-2h-22a2 2 0 0 0 2 2z"></path></g><path d="m31 38h26v20h-26z" fill="#e3e8f6"></path><path d="m34 53a3 3 0 0 0 3 3h20v-18h-23z" fill="#f8f7fe"></path><path d="m31 42h8v10h-8z" fill="#a1cdf9"></path><path d="m34 42h5a0 0 0 0 1 0 0v7a0 0 0 0 1 0 0h-3a2 2 0 0 1 -2-2v-5a0 0 0 0 1 0 0z" fill="#c0dafb"></path><path d="m49 42h8v10h-8z" fill="#a1cdf9"></path><path d="m52 42h5a0 0 0 0 1 0 0v7a0 0 0 0 1 0 0h-3a2 2 0 0 1 -2-2v-5a0 0 0 0 1 0 0z" fill="#c0dafb"></path><path d="m39 42h10v10h-10z" fill="#a1cdf9"></path><path d="m42 42h7a0 0 0 0 1 0 0v7a0 0 0 0 1 0 0h-5a2 2 0 0 1 -2-2v-5a0 0 0 0 1 0 0z" fill="#c0dafb"></path><path d="m5 58h54v4h-54z" fill="#4472b0"></path><path d="m10 60h49v-2h-51a2 2 0 0 0 2 2z" fill="#77a0d3"></path><path d="m11 8h16v4h-16z" fill="#4472b0"></path><path d="m15 10h12v-2h-14a2 2 0 0 0 2 2z" fill="#77a0d3"></path><path d="m14 48h10v10h-10z" fill="#a1cdf9"></path><path d="m7 16h24v10h-24z" fill="#a1cdf9"></path><path d="m9 21a3 3 0 0 0 3 3h19v-8h-22z" fill="#c0dafb"></path><path d="m31 34h28v4h-28z" fill="#4472b0"></path><path d="m36 36h23v-2h-25a2 2 0 0 0 2 2z" fill="#77a0d3"></path><path d="m54.732 18.991a10.5 10.5 0 0 0 -7.863-16.963q-.43-.028-.869-.028t-.869.028a10.5 10.5 0 0 0 -7.863 16.963l8.732 11.009z" fill="#aa2b24"></path><path d="m47 2.045a10.5 10.5 0 0 0 -7.732 16.946l7.732 9.748 7.732-9.748a10.5 10.5 0 0 0 -7.732-16.946z" fill="#d24034"></path><circle cx="46" cy="13" fill="#e3e8f6" r="7"></circle><ellipse cx="47" cy="13" fill="#f8f7fe" rx="6" ry="6.92"></ellipse><path d="m7 30h24v10h-24z" fill="#a1cdf9"></path><path d="m9 35a3 3 0 0 0 3 3h19v-8h-22z" fill="#c0dafb"></path><path d="m16 48h3a0 0 0 0 1 0 0v8a0 0 0 0 1 0 0h-1a2 2 0 0 1 -2-2v-6a0 0 0 0 1 0 0z" fill="#c0dafb"></path><path d="m11.586 35h2.828v2h-2.828z" transform="matrix(.707 -.707 .707 .707 -21.648 19.737)"></path><path d="m11.586 21h2.828v2h-2.828z" transform="matrix(.707 -.707 .707 .707 -11.749 15.636)"></path><path d="m59 39a1 1 0 0 0 1-1v-4a1 1 0 0 0 -1-1h-27v-21a1 1 0 0 0 -1-1h-3v-3a1 1 0 0 0 -1-1h-7v-6h-2v6h-7a1 1 0 0 0 -1 1v3h-3a1 1 0 0 0 -1 1v45h-1a1 1 0 0 0 -1 1v4a1 1 0 0 0 1 1h54a1 1 0 0 0 1-1v-4a1 1 0 0 0 -1-1h-1v-18zm-1-4v2h-26v-2zm-2 16h-6v-8h6zm-8 0h-8v-8h8zm-10 0h-6v-8h6zm-22.293-30.293 3.707-3.707h10.586v8h-22v-2.586l5.414-5.414h3.172l-2.293 2.293zm14.293 8.293h-22v-2h22zm-22-9.414v-2.586h2.586zm0 11.414h2.586l-2.586 2.586zm0 5.414 5.414-5.414h3.172l-2.293 2.293 1.414 1.414 3.707-3.707h10.586v8h-22zm4-27.414h14v2h-14zm18 4v2h-22v-2zm-22 28h22v16h-5v-9a1 1 0 0 0 -1-1h-10a1 1 0 0 0 -1 1v9h-5zm7 16v-8h3v8zm5-8h3v8h-3zm38 12h-52v-2h52zm-26-4v-4h24v4zm24-16h-24v-2h24z"></path><path d="m45.216 30.622a1 1 0 0 0 1.568 0l8.731-11.009a11.188 11.188 0 0 0 1.492-11.675 11.608 11.608 0 0 0 -10.074-6.908 14.523 14.523 0 0 0 -1.866 0 11.608 11.608 0 0 0 -10.074 6.908 11.188 11.188 0 0 0 1.492 11.675zm-8.395-21.872a9.641 9.641 0 0 1 8.379-5.724q.394-.026.8-.026t.8.026a9.642 9.642 0 0 1 8.379 5.724 9.217 9.217 0 0 1 -1.231 9.62l-7.948 10.021-7.948-10.021a9.217 9.217 0 0 1 -1.231-9.62z"></path><path d="m46 21a8 8 0 1 0 -8-8 8.009 8.009 0 0 0 8 8zm0-14a6 6 0 1 1 -6 6 6.006 6.006 0 0 1 6-6z"></path></svg>