<!-- icon666.com - MILLIONS OF FREE VECTOR ICONS --><svg id="Layer_1" viewBox="0 0 64 64" xmlns="http://www.w3.org/2000/svg" data-name="Layer 1"><path d="m4 6h6v32h-6z" fill="#dae3f2"></path><path d="m54 6h6v32h-6z" fill="#dae3f2"></path><path d="m44 9h4v4h-4z" fill="#405d80"></path><path d="m30 9h4v4h-4z" fill="#405d80"></path><path d="m16 9h4v4h-4z" fill="#405d80"></path><path d="m2 2h60v4h-60z" fill="#526273"></path><circle cx="36" cy="23" fill="#526273" r="2"></circle><path d="m6 52h4a4 4 0 0 1 4 4v6a0 0 0 0 1 0 0h-12a0 0 0 0 1 0 0v-6a4 4 0 0 1 4-4z" fill="#82ace6" style="fill: rgb(23, 22, 161);"></path><path d="m18 52h4a4 4 0 0 1 4 4v6a0 0 0 0 1 0 0h-12a0 0 0 0 1 0 0v-6a4 4 0 0 1 4-4z" fill="#759acc" style="fill: rgb(236, 112, 45);"></path><path d="m30 52h4a4 4 0 0 1 4 4v6a0 0 0 0 1 0 0h-12a0 0 0 0 1 0 0v-6a4 4 0 0 1 4-4z" fill="#82ace6" style="fill: rgb(23, 22, 161);"></path><path d="m42 52h4a4 4 0 0 1 4 4v6a0 0 0 0 1 0 0h-12a0 0 0 0 1 0 0v-6a4 4 0 0 1 4-4z" fill="#759acc" style="fill: rgb(236, 112, 45);"></path><path d="m54 52h4a4 4 0 0 1 4 4v6a0 0 0 0 1 0 0h-12a0 0 0 0 1 0 0v-6a4 4 0 0 1 4-4z" fill="#82ace6" style="fill: rgb(23, 22, 161);"></path><g fill="#ffdbac"><circle cx="8" cy="48.5" r="3.5" fill="#ffdbac" style="fill: rgb(117, 231, 211);"></circle><circle cx="20" cy="48.5" r="3.5" fill="#ffdbac" style="fill: rgb(117, 231, 211);"></circle><circle cx="32" cy="48.5" r="3.5" fill="#ffdbac" style="fill: rgb(117, 231, 211);"></circle><circle cx="44" cy="48.5" r="3.5" fill="#ffdbac" style="fill: rgb(117, 231, 211);"></circle><circle cx="56" cy="48.5" r="3.5" fill="#ffdbac" style="fill: rgb(117, 231, 211);"></circle></g><path d="m59.52509 51.43622a4.45494 4.45494 0 0 0 .97491-2.76312 4.5 4.5 0 0 0 -9 0 4.45494 4.45494 0 0 0 .97491 2.76312 4.99243 4.99243 0 0 0 -2.47491 1.76778 4.99243 4.99243 0 0 0 -2.47491-1.76782 4.45494 4.45494 0 0 0 .97491-2.76308 4.5 4.5 0 0 0 -9 0 4.45494 4.45494 0 0 0 .97491 2.76312 4.99243 4.99243 0 0 0 -2.47491 1.76778 4.99243 4.99243 0 0 0 -2.47491-1.76782 4.45494 4.45494 0 0 0 .97491-2.76308 4.5 4.5 0 0 0 -9 0 4.45494 4.45494 0 0 0 .97491 2.76312 4.99243 4.99243 0 0 0 -2.47491 1.76778 4.99243 4.99243 0 0 0 -2.47491-1.76782 4.45494 4.45494 0 0 0 .97491-2.76308 4.5 4.5 0 0 0 -9 0 4.45494 4.45494 0 0 0 .97491 2.76312 4.99243 4.99243 0 0 0 -2.47491 1.76778 4.99243 4.99243 0 0 0 -2.47491-1.76782 4.45494 4.45494 0 0 0 .97491-2.76308 4.5 4.5 0 0 0 -9 0 4.45494 4.45494 0 0 0 .97491 2.76312 4.99022 4.99022 0 0 0 -3.47491 4.73688v6a1 1 0 0 0 1 1h60a1 1 0 0 0 1-1v-6a4.99022 4.99022 0 0 0 -3.47491-4.73688zm-51.52509-5.26312a2.5 2.5 0 1 1 -2.5 2.5 2.50294 2.50294 0 0 1 2.5-2.5zm5 15h-10v-5a3.00328 3.00328 0 0 1 3-3h4a3.00328 3.00328 0 0 1 3 3zm7-15a2.5 2.5 0 1 1 -2.5 2.5 2.50294 2.50294 0 0 1 2.5-2.5zm5 15h-10v-5a3.00328 3.00328 0 0 1 3-3h4a3.00328 3.00328 0 0 1 3 3zm7-15a2.5 2.5 0 1 1 -2.5 2.5 2.50294 2.50294 0 0 1 2.5-2.5zm5 15h-10v-5a3.00328 3.00328 0 0 1 3-3h4a3.00328 3.00328 0 0 1 3 3zm7-15a2.5 2.5 0 1 1 -2.5 2.5 2.50294 2.50294 0 0 1 2.5-2.5zm5 15h-10v-5a3.00328 3.00328 0 0 1 3-3h4a3.00328 3.00328 0 0 1 3 3zm7-15a2.5 2.5 0 1 1 -2.5 2.5 2.50294 2.50294 0 0 1 2.5-2.5zm5 15h-10v-5a3.00328 3.00328 0 0 1 3-3h4a3.00328 3.00328 0 0 1 3 3z" fill="#000000"></path><path d="m62 1.1731h-60a1 1 0 0 0 -1 1v4a1 1 0 0 0 1 1h1v30h-2v2h62v-2h-2v-30h1a1 1 0 0 0 1-1v-4a1 1 0 0 0 -1-1zm-53 36h-4v-.46484l4-2.66669zm-4-2.86841v-3.51343l3.01172 1.50586zm4-3.74975-3.01141-1.50574 3.01141-2.00763zm-4-3.25025v-3.51343l3.01172 1.50586zm4-3.74975-3.01141-1.50574 3.01141-2.00763zm-4-3.25025v-3.51343l3.01172 1.50586zm4-3.74975-3.01141-1.50574 3.01141-2.00763zm-4-3.25025v-3.51343l3.01172 1.50586zm4-3.74975-4-2v-.38184h4zm21.41406 27.61816 1.58594-1.58594 1.58594 1.58594zm22.58594 0h-16.58594l-3.41406-3.4141v-7.38632l1.20953-.80688a2.97134 2.97134 0 0 0 1.79047.6073 3 3 0 1 0 -3-3 2.9673 2.9673 0 0 0 .09973.72827l-6.65491 4.4397 1.11036 1.66406 3.44482-2.29813v6.052l-3.41406 3.4141h-16.58594v-30h6v1h-1a1 1 0 0 0 -1 1v4a1 1 0 0 0 1 1h4a1 1 0 0 0 1-1v-4a1 1 0 0 0 -1-1h-1v-1h12v1h-1a1 1 0 0 0 -1 1v4a1 1 0 0 0 1 1h4a1 1 0 0 0 1-1v-4a1 1 0 0 0 -1-1h-1v-1h12v1h-1a1 1 0 0 0 -1 1v4a1 1 0 0 0 1 1h4a1 1 0 0 0 1-1v-4a1 1 0 0 0 -1-1h-1v-1h6zm-18-14a1 1 0 1 1 1 1 1.0013 1.0013 0 0 1 -1-1zm-16-13v2h-2v-2zm14 0v2h-2v-2zm14 0v2h-2v-2zm12 27h-4v-.46484l4-2.66669zm-4-2.86841v-3.51343l3.01172 1.50586zm4-3.74975-3.01141-1.50574 3.01141-2.00763zm-4-3.25025v-3.51343l3.01172 1.50586zm4-3.74975-3.01141-1.50574 3.01141-2.00763zm-4-3.25025v-3.51343l3.01172 1.50586zm4-3.74975-3.01141-1.50574 3.01141-2.00763zm-4-3.25025v-3.51343l3.01172 1.50586zm4-3.74975-4-2v-.38184h4zm2-4.38184h-58v-2h58z" fill="#000000"></path></svg>