<!-- icon666.com - MILLIONS OF FREE VECTOR ICONS --><svg id="Layer_3" enable-background="new 0 0 64 64" viewBox="0 0 64 64" xmlns="http://www.w3.org/2000/svg"><g><g><path d="m59 23-5 5v5l-4 4v9l5-5h7v-18z" fill="#816551"></path></g><g><path d="m48 62h14v-21h-7l-7 7z" fill="#ac876c"></path></g><g><path d="m48 62c2.209 0 4-1.791 4-4s-1.791-4-4-4c-1.233 0-2.322.57-3.056 1.447-.271-1.945-1.924-3.447-3.944-3.447-1.586 0-2.944.93-3.591 2.268-.44-.166-.911-.268-1.409-.268s-.969.102-1.409.268c-.647-1.338-2.005-2.268-3.591-2.268-2.209 0-4 1.791-4 4-1.657 0-3 1.343-3 3s1.343 3 3 3z" fill="#689eb8"></path></g><g><g><path d="m27.279 54.556c-.026.065-.04.135-.062.201.022-.067.037-.136.062-.201z" fill="#8bd2f5"></path></g><g><path d="m27.076 55.241c-.048.246-.076.499-.076.759 0-.26.029-.513.076-.759z" fill="#8bd2f5"></path></g><g><path d="m19 26v1l2 2v5l4 4v7l3 3v5.38c.733-.839 1.798-1.38 3-1.38 1.586 0 2.944.93 3.591 2.268.44-.166.911-.268 1.409-.268s.969.102 1.409.268c.647-1.338 2.005-2.268 3.591-2.268 2.02 0 3.673 1.502 3.944 3.447.734-.877 1.823-1.447 3.056-1.447v-6l2-2v-9l4-4v-5l2-2z" fill="#8bd2f5"></path></g><g><path d="m27.588 53.94c-.005.007-.008.016-.013.023.004-.008.008-.016.013-.023z" fill="#8bd2f5"></path></g></g><g><path d="m24 59c0-1.657 1.343-3 3-3 0-1.008.385-1.917 1-2.62 0-2.546 0-5.38 0-5.38l-14-14h-4l-4-4h-4v32h25c-1.657 0-3-1.343-3-3z" fill="#ac876c"></path></g><g><path d="m6 30 4 4h4l11 11v-7l-4-4v-5l-6-6h-8l-3 3v4z" fill="#816551"></path></g><g><circle cx="41" cy="10" fill="#fcc062" r="3"></circle></g><g><path d="m24.44 15.383c.345-.359.56-.845.56-1.383 0-1.105-.895-2-2-2-.101 0-.197.015-.293.03.182-.302.293-.652.293-1.03 0-1.105-.895-2-2-2s-2 .895-2 2c0 .378.111.728.293 1.03-.096-.015-.192-.03-.293-.03-1.105 0-2 .895-2 2 0 .538.215 1.024.56 1.383-.925.511-1.56 1.485-1.56 2.617 0 1.657 1.343 3 3 3 .772 0 1.468-.3 2-.779.532.479 1.228.779 2 .779 1.657 0 3-1.343 3-3 0-1.132-.635-2.106-1.56-2.617z" fill="#96cc7f"></path></g><g><path d="m10.44 13.383c.345-.359.56-.845.56-1.383 0-1.105-.895-2-2-2-.101 0-.197.015-.293.03.182-.302.293-.652.293-1.03 0-1.105-.895-2-2-2s-2 .895-2 2c0 .378.111.728.293 1.03-.096-.015-.192-.03-.293-.03-1.105 0-2 .895-2 2 0 .538.215 1.024.56 1.383-.925.511-1.56 1.485-1.56 2.617 0 1.657 1.343 3 3 3 .772 0 1.468-.3 2-.779.532.479 1.228.779 2 .779 1.657 0 3-1.343 3-3 0-1.132-.635-2.106-1.56-2.617z" fill="#96cc7f"></path></g><g><path d="m60.44 13.383c.345-.359.56-.845.56-1.383 0-1.105-.895-2-2-2-.101 0-.197.015-.293.03.182-.302.293-.652.293-1.03 0-1.105-.895-2-2-2s-2 .895-2 2c0 .378.111.728.293 1.03-.096-.015-.192-.03-.293-.03-1.105 0-2 .895-2 2 0 .538.215 1.024.56 1.383-.925.511-1.56 1.485-1.56 2.617 0 1.657 1.343 3 3 3 .772 0 1.468-.3 2-.779.532.479 1.228.779 2 .779 1.657 0 3-1.343 3-3 0-1.132-.635-2.106-1.56-2.617z" fill="#96cc7f"></path></g><g><path d="m9 20c-.705 0-1.393-.19-2-.546-.607.356-1.295.546-2 .546-2.206 0-4-1.794-4-4 0-1.091.453-2.12 1.225-2.863-.148-.358-.225-.742-.225-1.137 0-1.306.838-2.419 2.005-2.83-.004-.057-.005-.113-.005-.17 0-1.654 1.346-3 3-3s3 1.346 3 3c0 .057-.001.113-.005.17 1.167.411 2.005 1.524 2.005 2.83 0 .395-.077.779-.225 1.137.772.743 1.225 1.772 1.225 2.863 0 2.206-1.794 4-4 4zm-2-2.778c.239 0 .479.086.669.257.265.238.71.521 1.331.521 1.103 0 2-.897 2-2 0-.719-.4-1.386-1.043-1.74-.272-.15-.459-.418-.506-.726-.046-.307.052-.618.267-.843.182-.189.282-.435.282-.691 0-.592-.54-1.065-1.119-.985-.377.057-.779-.113-.992-.436s-.238-.737-.038-1.067c.099-.163.149-.336.149-.512 0-.552-.449-1-1-1s-1 .448-1 1c0 .176.05.349.149.512.2.33.192.746-.021 1.068s-.594.493-.975.439c-.073-.01-.112-.019-.153-.019-.551 0-1 .448-1 1 0 .256.1.502.282.691.215.225.313.536.267.843-.047.308-.234.575-.506.726-.643.354-1.043 1.021-1.043 1.74 0 1.103.897 2 2 2 .621 0 1.066-.283 1.331-.521.19-.171.43-.257.669-.257z"></path></g><g><path d="m6 18.222h2v4.778h-2z"></path></g><g><path d="m59 20c-.705 0-1.393-.19-2-.546-.607.356-1.295.546-2 .546-2.206 0-4-1.794-4-4 0-1.091.453-2.12 1.225-2.863-.148-.358-.225-.742-.225-1.137 0-1.306.838-2.419 2.005-2.83-.004-.057-.005-.113-.005-.17 0-1.654 1.346-3 3-3s3 1.346 3 3c0 .057-.001.113-.005.17 1.167.411 2.005 1.524 2.005 2.83 0 .395-.077.779-.225 1.137.772.743 1.225 1.772 1.225 2.863 0 2.206-1.794 4-4 4zm-2-2.778c.239 0 .479.086.669.257.265.238.71.521 1.331.521 1.103 0 2-.897 2-2 0-.719-.4-1.386-1.043-1.74-.272-.15-.459-.418-.506-.726-.046-.307.052-.618.267-.843.182-.189.282-.435.282-.691 0-.592-.536-1.065-1.119-.985-.377.057-.778-.113-.992-.436-.213-.322-.238-.737-.038-1.067.099-.163.149-.336.149-.512 0-.552-.449-1-1-1s-1 .448-1 1c0 .176.05.349.149.512.2.33.192.746-.021 1.068s-.594.493-.975.439c-.073-.01-.112-.019-.153-.019-.551 0-1 .448-1 1 0 .256.1.502.282.691.215.225.313.536.267.843-.047.308-.234.575-.506.726-.643.354-1.043 1.021-1.043 1.74 0 1.103.897 2 2 2 .621 0 1.066-.283 1.331-.521.19-.171.43-.257.669-.257z"></path></g><g><path d="m56 18.222h2v6.778h-2z"></path></g><g><path d="m23 22c-.705 0-1.393-.19-2-.546-.607.356-1.295.546-2 .546-2.206 0-4-1.794-4-4 0-1.091.453-2.12 1.225-2.863-.148-.358-.225-.742-.225-1.137 0-1.306.838-2.419 2.005-2.83-.004-.057-.005-.113-.005-.17 0-1.654 1.346-3 3-3s3 1.346 3 3c0 .057-.001.113-.005.17 1.167.411 2.005 1.524 2.005 2.83 0 .395-.077.779-.225 1.137.772.743 1.225 1.772 1.225 2.863 0 2.206-1.794 4-4 4zm-2-2.778c.239 0 .479.086.669.257.265.238.71.521 1.331.521 1.103 0 2-.897 2-2 0-.719-.4-1.386-1.043-1.74-.272-.15-.459-.418-.506-.726-.046-.307.052-.618.267-.843.182-.189.282-.435.282-.691 0-.592-.536-1.069-1.119-.985-.376.054-.779-.114-.992-.436s-.238-.737-.038-1.067c.099-.163.149-.336.149-.512 0-.552-.449-1-1-1s-1 .448-1 1c0 .176.05.349.149.512.2.33.192.746-.021 1.068-.212.322-.592.493-.975.439-.073-.01-.112-.019-.153-.019-.551 0-1 .448-1 1 0 .256.1.502.282.691.215.225.313.536.267.843-.047.308-.234.575-.506.726-.643.354-1.043 1.021-1.043 1.74 0 1.103.897 2 2 2 .621 0 1.066-.283 1.331-.521.19-.171.43-.257.669-.257z"></path></g><g><path d="m20 20.222h2v5.778h-2z"></path></g><g><path d="m41 14c-2.206 0-4-1.794-4-4s1.794-4 4-4 4 1.794 4 4-1.794 4-4 4zm0-6c-1.103 0-2 .897-2 2s.897 2 2 2 2-.897 2-2-.897-2-2-2z"></path></g><g><path d="m40 2h2v2h-2z"></path></g><g><path d="m40 16h2v2h-2z"></path></g><g><path d="m47 9h2v2h-2z"></path></g><g><path d="m33 9h2v2h-2z"></path></g><g><path d="m44.586 4h2.828v2h-2.828z" transform="matrix(.707 -.707 .707 .707 9.938 33.991)"></path></g><g><path d="m35 3.586h2v2.828h-2z" transform="matrix(.707 -.707 .707 .707 7.009 26.92)"></path></g><g><path d="m45 13.586h2v2.828h-2z" transform="matrix(.707 -.707 .707 .707 2.867 36.92)"></path></g><g><path d="m34.586 14h2.828v2h-2.828z" transform="matrix(.707 -.707 .707 .707 -.062 29.849)"></path></g><g><path d="m62 63h-60c-.552 0-1-.447-1-1v-32c0-.553.448-1 1-1h4c.265 0 .52.105.707.293l3.707 3.707h3.586c.265 0 .52.105.707.293l14 14c.188.187.293.441.293.707v5.36h-2v-4.946l-13.414-13.414h-3.586c-.265 0-.52-.105-.707-.293l-3.707-3.707h-2.586v30h58v-19h-5.586l-6.414 6.414v4.586c0 .266-.105.52-.293.707l-1.186 1.186-1.414-1.414.893-.893v-4.586c0-.266.105-.52.293-.707l7-7c.187-.188.442-.293.707-.293h7c.552 0 1 .447 1 1v21c0 .553-.448 1-1 1z"></path></g><g><path d="m26 45h-2v-6.586l-3.707-3.707c-.188-.187-.293-.441-.293-.707v-4.586l-5.414-5.414h-7.172l-2.414 2.414v3.586h-2v-4c0-.266.105-.52.293-.707l3-3c.187-.188.442-.293.707-.293h8c.265 0 .52.105.707.293l6 6c.188.187.293.441.293.707v4.586l3.707 3.707c.188.187.293.441.293.707z"></path></g><g><path d="m51 46h-2v-9c0-.266.105-.52.293-.707l3.707-3.707v-4.586c0-.266.105-.52.293-.707l5-5c.187-.188.442-.293.707-.293h3c.552 0 1 .447 1 1v18h-2v-17h-1.586l-4.414 4.414v4.586c0 .266-.105.52-.293.707l-3.707 3.707z"></path></g><g><path d="m48 63v-2c1.654 0 3-1.346 3-3s-1.346-3-3-3c-.875 0-1.709.396-2.289 1.089-.254.304-.663.43-1.042.319-.38-.108-.66-.432-.715-.822-.206-1.475-1.475-2.586-2.954-2.586-1.151 0-2.182.653-2.69 1.704-.225.466-.768.686-1.253.5-.729-.275-1.384-.275-2.112 0-.483.185-1.028-.034-1.253-.5-.51-1.051-1.541-1.704-2.692-1.704-1.654 0-3 1.346-3 3 0 .553-.448 1-1 1-1.103 0-2 .897-2 2s.897 2 2 2v2c-2.206 0-4-1.794-4-4 0-1.889 1.316-3.477 3.08-3.894.422-2.332 2.468-4.106 4.92-4.106 1.638 0 3.127.786 4.056 2.096.631-.127 1.257-.127 1.888 0 .929-1.31 2.418-2.096 4.056-2.096 1.901 0 3.596 1.098 4.433 2.724.769-.469 1.653-.724 2.567-.724 2.757 0 5 2.243 5 5s-2.243 5-5 5z"></path></g><g><path d="m18 25h38v2h-38z"></path></g><g><path d="m32 42h-2v-1.515c0-5.205-2.027-10.098-5.707-13.778l1.414-1.414c4.058 4.058 6.293 9.453 6.293 15.192z"></path></g><g><path d="m45 42h-2v-1.515c0-5.739 2.235-11.135 6.293-15.192l1.414 1.414c-3.68 3.681-5.707 8.573-5.707 13.778z"></path></g><g><path d="m30 46h2v6h-2z"></path></g><g><path d="m43 44h2v9h-2z"></path></g><g><path d="m36 26h2v20h-2z"></path></g><g><path d="m36 50h2v4h-2z"></path></g></g></svg>