<!-- icon666.com - MILLIONS OF FREE VECTOR ICONS --><svg viewBox="0 -20 477.99998 477" xmlns="http://www.w3.org/2000/svg"><path d="m294 159.898438h-120c0-33.136719 26.863281-60 60-60s60 26.863281 60 60zm0 0" fill="#e48e66"></path><path d="m284.25 413.5-.160156.078125c-35.992188 18.742187-78.871094 18.710937-114.839844-.078125-24.859375 17.921875-58.382812 17.976562-83.300781.140625l-.199219-.140625 40-224h227l39.5 224-3.25 1.730469c-32.867188 17.578125-72.480469 16.921875-104.75-1.730469zm0 0" fill="#f8ec7d"></path><g fill="#63316d"><path d="m470.117188 80.570312c-4.933594-.617187-9.429688 2.882813-10.046876 7.8125l-19.015624 152.117188h-70.171876l-9.269531-52.5625c-.757812-4.300781-4.496093-7.4375-8.863281-7.4375h-227c-4.359375 0-8.09375 3.125-8.859375 7.417969l-9.390625 52.582031h-70.554688l-19.015624-152.117188c-.613282-4.929687-5.113282-8.429687-10.046876-7.8125-4.929687.613282-8.429687 5.113282-7.8124995 10.046876l19.9999995 160c.5625 4.503906 4.390626 7.882812 8.929688 7.882812h16.042969l-18.921875 113.519531c-.816406 4.90625 2.496094 9.542969 7.398437 10.359375 4.90625.816406 9.542969-2.496094 10.359375-7.398437l19.414063-116.480469h41l-27.402344 153.417969c-.617187 3.449219.824219 6.941406 3.695313 8.953125l.125.085937c26.40625 18.929688 61.621093 20.085938 89.210937 2.921875 36.148437 17.042969 78.039063 16.960938 114.125-.222656 16.132813 8.429688 34.007813 12.980469 52.207031 13.292969.640625.011719 1.277344.015625 1.917969.015625 19.207031-.007813 38.113281-4.742188 55.058594-13.789063l3.25-1.730469c3.4375-1.832031 5.308593-5.671874 4.632812-9.507812l-27.058593-153.4375h40.65625l19.414062 116.480469c.863281 4.855469 5.472656 8.109375 10.339844 7.300781 4.863281-.8125 8.167968-5.386719 7.414062-10.261719l-18.921875-113.519531h16.042969c4.539062 0 8.367188-3.378906 8.929688-7.882812l20-160c.617187-4.933594-2.882813-9.429688-7.8125-10.046876zm-176.867188 327.574219v-115.644531c0-4.96875-4.027344-9-9-9-4.96875 0-9 4.03125-9 9v115.386719c-30.757812 14.269531-66.242188 14.269531-97 0v-80.386719c0-4.96875-4.027344-9-9-9-4.96875 0-9 4.03125-9 9v81.191406c-19.753906 12.195313-44.644531 12.40625-64.597656.542969l37.632812-210.734375h211.914063l37.050781 210.09375c-28.03125 14.097656-61.113281 13.929688-89-.449219zm0 0"></path><path d="m174 168.898438h120c4.972656 0 9-4.027344 9-9 .007812-34.628907-25.664062-63.894532-60-68.398438v-8.398438c0-4.972656-4.027344-9-9-9-4.96875 0-9 4.027344-9 9v8.40625c-34.304688 4.550782-59.953125 33.785157-60 68.390626 0 4.972656 4.03125 9 9 9zm60-60c24.699219 0 45.847656 17.691406 50.214844 42h-100.414063c4.390625-24.289063 25.515625-41.964844 50.199219-42zm0 0"></path><path d="m264 71.5c4.972656 0 9-4.03125 9-9v-23c0-4.96875-4.027344-9-9-9-4.96875 0-9 4.03125-9 9v23c0 4.96875 4.03125 9 9 9zm0 0"></path><path d="m223 54.5c4.972656 0 9-4.03125 9-9v-36c0-4.96875-4.027344-9-9-9-4.96875 0-9 4.03125-9 9v36c0 4.96875 4.03125 9 9 9zm0 0"></path><path d="m185 78.5c4.972656 0 9-4.03125 9-9v-19c0-4.96875-4.027344-9-9-9-4.96875 0-9 4.03125-9 9v19c0 4.96875 4.03125 9 9 9zm0 0"></path></g></svg>