<!-- icon666.com - MILLIONS OF FREE VECTOR ICONS --><svg id="Layer_1" viewBox="0 0 512 512" xmlns="http://www.w3.org/2000/svg"><path d="m157.62 407.09c-29.66 29.66-73.24 34.18-80.07 27.36-6.82-6.83-2.3-50.41 27.36-80.07 29.67-29.67 82.38 23.04 52.71 52.71z"></path><path d="m476.61 35.39c-13.641-13.63-150.66-7.27-240.541 80.58-.71.68-1.42 1.38-2.12 2.08-29.279 29.28-52.949 60.56-70.019 90.95-4.18 7.43-7.96 14.81-11.33 22.09l128.32 128.31c7.271-3.37 14.65-7.15 22.07-11.33 30.399-17.061 61.68-40.74 90.96-70.021.71-.71 1.41-1.42 2.09-2.13 87.84-89.879 94.2-226.899 80.57-240.529zm-149.9 36.97c1.19-.77 29.49-18.92 69.94-24.7 3.92-.56 7.54 2.16 8.1 6.08.56 3.91-2.16 7.54-6.08 8.1-37.35 5.33-63.9 22.35-64.16 22.52-1.21.79-2.56 1.16-3.89 1.16-2.351 0-4.64-1.15-6.021-3.26-2.149-3.32-1.209-7.75 2.111-9.9zm74.86 102.65c-8.63 8.63-20.101 13.38-32.29 13.38-12.2 0-23.67-4.75-32.29-13.37-17.811-17.81-17.811-46.78-.01-64.59 8.63-8.62 20.1-13.37 32.3-13.37 12.189 0 23.66 4.75 32.29 13.37 17.8 17.81 17.8 46.78 0 64.58z"></path><path d="m396.62 170.06c-15.101 15.11-39.58 15.11-54.69.01-15.1-15.1-15.1-39.59 0-54.69 15.11-15.1 39.59-15.1 54.69 0s15.1 39.59 0 54.68z"></path><path d="m222.77 119.45c-26.11 27.07-48.06 56.15-64.57 85.43-41.91-29.85-73.95-45.77-73.95-45.77-2.52-1.25-2.35-2.85.37-3.56z"></path><path d="m307.12 353.8c29.3-16.52 58.37-38.47 85.45-64.58l-36.11 138.17c-.72 2.721-2.32 2.88-3.57.36 0 0-15.92-32.04-45.77-73.95z"></path><path d="m277.25 365.63-4.79 8.13-8.97 15.24c-1.431 2.43-4.221 2.78-6.21.79l-135.07-135.07c-1.99-1.99-1.64-4.79.79-6.21l23.37-13.76z"></path><path d="m82.25 338.18c-51.55 51.54-59.4 127.25-47.54 139.11s87.57 4.01 139.11-47.54c51.55-51.54-40.03-143.12-91.57-91.57zm80.32 73.86c-22.24 22.229-52.76 32.19-73.15 32.19-7.95 0-13.61-1.631-16.82-4.83-6.84-6.851-5.43-24.2-1.83-38.17 2.93-11.38 10.63-33.23 29.19-51.8 7.08-7.08 15.89-10.819 25.47-10.819 18.18 0 36.96 13.5 44.67 32.1 6.29 15.189 3.55 30.249-7.53 41.329z"></path></svg>